<?xml version="1.0" standalone="no"?>
<!DOCTYPE svg PUBLIC "-//W3C//DTD SVG 1.1//EN" "http://www.w3.org/Graphics/SVG/1.1/DTD/svg11.dtd" >
<svg xmlns="http://www.w3.org/2000/svg" xmlns:xlink="http://www.w3.org/1999/xlink" version="1.1">
<metadata>
Created by FontForge 20170910 at Wed May 11 14:00:09 2011
 By Jimmy Wärting
(c) 2011 Klim Type Foundry. All rights reserved.
</metadata>
<defs>
<font id="Calibre-LightItalic" horiz-adv-x="500" >
  <font-face 
    font-family="Calibre"
    font-weight="300"
    font-style="italic"
    font-stretch="normal"
    units-per-em="1000"
    panose-1="2 11 3 3 3 2 2 13 2 3"
    ascent="650"
    descent="-350"
    x-height="444"
    cap-height="614"
    bbox="-180 -183 885 893"
    underline-thickness="30"
    underline-position="-70"
    slope="-10"
    stemh="48"
    stemv="51"
    unicode-range="U+0020-FB02"
  />
<missing-glyph horiz-adv-x="608" 
 />
    <glyph glyph-name="f_f" unicode="ff" horiz-adv-x="494" 
d="M580 650l-8 -45c-12 6 -26 9 -42 9c-50 0 -88 -33 -99 -95l-13 -75h104l-8 -43h-104l-70 -401h-49l70 401h-186l-70 -401h-49l70 401h-72l8 43h72l13 74c14 81 71 135 145 135c20 0 38 -3 52 -9l-8 -45c-13 6 -26 9 -42 9c-50 0 -88 -33 -99 -95l-12 -69h186l14 80
c15 81 71 135 146 135c19 0 37 -3 51 -9z" />
    <glyph glyph-name=".notdef" horiz-adv-x="608" 
 />
    <glyph glyph-name="space" unicode=" " horiz-adv-x="221" 
 />
    <glyph glyph-name="exclam" unicode="!" horiz-adv-x="206" 
d="M83 192l66 422h56l-85 -422h-37zM36 35c0 22 17 39 38 39c20 0 37 -17 37 -39c0 -21 -17 -38 -37 -38c-21 0 -38 17 -38 38z" />
    <glyph glyph-name="quotedbl" unicode="&#x22;" horiz-adv-x="221" 
d="M73 418l35 196h45l-35 -196h-45zM169 418l35 196h45l-35 -196h-45z" />
    <glyph glyph-name="numbersign" unicode="#" horiz-adv-x="554" 
d="M500 231l-8 -40h-119l-58 -191h-44l58 191h-143l-58 -191h-43l58 191h-97l8 40h101l46 152h-115l8 40h119l58 191h44l-58 -191h142l59 191h43l-58 -191h97l-9 -40h-100l-46 -152h115zM245 383l-47 -152h143l46 152h-142z" />
    <glyph glyph-name="dollar" unicode="$" horiz-adv-x="459" 
d="M20 164h48c12 -74 75 -107 152 -107c87 0 154 45 154 131c0 38 -23 69 -82 88l-103 32c-67 21 -112 57 -112 124c0 103 87 169 195 169h7l18 94h45l-18 -99c85 -16 131 -72 139 -145h-47c-10 63 -60 107 -144 107c-79 0 -147 -43 -147 -122c0 -46 33 -70 89 -87l96 -30
c76 -24 112 -63 112 -128c0 -111 -94 -178 -201 -178l-17 -98h-45l17 101c-85 12 -148 63 -156 148z" />
    <glyph glyph-name="percent" unicode="%" horiz-adv-x="620" 
d="M196 623c69 0 122 -54 122 -122c0 -67 -55 -132 -130 -132c-69 0 -123 53 -123 121s56 133 131 133zM189 411c46 0 87 39 87 89c0 44 -37 80 -82 80c-46 0 -86 -39 -86 -89c0 -44 36 -80 81 -80zM43 0l495 614h47l-495 -614h-47zM433 -9c-69 0 -123 54 -123 122
c0 67 55 132 131 132c69 0 122 -53 122 -121s-55 -133 -130 -133zM439 203c-46 0 -86 -39 -86 -89c0 -44 36 -80 81 -80c46 0 87 39 87 89c0 44 -37 80 -82 80z" />
    <glyph glyph-name="ampersand" unicode="&#x26;" horiz-adv-x="554" 
d="M309 580c-67 0 -120 -44 -120 -122c0 -44 24 -77 55 -116l160 -203c32 44 53 97 64 157l47 -1c-12 -70 -41 -137 -84 -190l84 -105h-59l-57 71c-51 -49 -117 -80 -192 -80c-106 0 -178 66 -178 165c0 91 64 164 149 193c-23 33 -38 65 -38 107c0 103 78 167 169 167
c99 0 154 -63 156 -151h-49c-1 67 -42 108 -107 108zM207 34c67 0 123 26 167 69l-169 211c-73 -19 -127 -81 -127 -158c0 -72 55 -122 129 -122z" />
    <glyph glyph-name="quoteright" unicode="&#x2019;" horiz-adv-x="141" 
d="M57 452l70 98c-16 4 -27 17 -27 35c0 21 17 38 38 38s37 -16 37 -40c0 -16 -8 -30 -17 -43l-63 -88h-38z" />
    <glyph glyph-name="parenleft" unicode="(" horiz-adv-x="325" 
d="M36 212c0 213 132 380 340 438l-9 -51c-169 -55 -282 -196 -282 -387c0 -129 64 -214 171 -246l-9 -50c-133 38 -211 145 -211 296z" />
    <glyph glyph-name="parenright" unicode=")" horiz-adv-x="325" 
d="M312 354c0 -213 -132 -380 -340 -438l9 51c169 55 282 196 282 387c0 129 -64 214 -171 246l9 50c133 -38 211 -145 211 -296z" />
    <glyph glyph-name="asterisk" unicode="*" horiz-adv-x="315" 
d="M203 376l-32 6l18 106l-100 -37l-11 30l101 37l-83 70l21 23l82 -68l18 106l33 -6l-19 -106l101 37l11 -30l-101 -37l83 -70l-21 -24l-82 69z" />
    <glyph glyph-name="plus" unicode="+" horiz-adv-x="514" 
d="M279 480h43l-29 -164h165l-7 -43h-166l-28 -164h-43l28 164h-163l7 43h164z" />
    <glyph glyph-name="comma" unicode="," horiz-adv-x="141" 
d="M-43 -101l73 102c-15 3 -26 16 -26 34c0 22 16 38 37 38c22 0 38 -16 38 -39c0 -17 -9 -31 -18 -43l-66 -92h-38z" />
    <glyph glyph-name="hyphen" unicode="-" horiz-adv-x="321" 
d="M43 237l8 46h241l-8 -46h-241z" />
    <glyph glyph-name="period" unicode="." horiz-adv-x="141" 
d="M4 35c0 22 17 39 37 39c21 0 38 -17 38 -39c0 -21 -17 -38 -38 -38c-20 0 -37 17 -37 38z" />
    <glyph glyph-name="slash" unicode="/" horiz-adv-x="306" 
d="M-48 -84l376 734h51l-377 -734h-50z" />
    <glyph glyph-name="zero" unicode="0" horiz-adv-x="535" 
d="M244 38c130 0 220 167 220 346c0 116 -50 192 -139 192c-130 0 -220 -167 -220 -346c0 -116 50 -192 139 -192zM245 -9c-118 0 -190 93 -190 239c0 210 114 393 270 393c117 0 189 -93 189 -239c0 -210 -113 -393 -269 -393z" />
    <glyph glyph-name="one" unicode="1" horiz-adv-x="321" 
d="M305 615l-108 -615h-51l97 552l-175 -82l9 54l196 91h32z" />
    <glyph glyph-name="two" unicode="2" horiz-adv-x="437" 
d="M-9 35l264 241c66 61 139 122 139 201c0 62 -42 99 -110 99c-89 0 -145 -60 -169 -147h-53c31 114 111 194 225 194c99 0 157 -56 157 -142c0 -97 -74 -160 -158 -237l-219 -197h311l-8 -47h-385z" />
    <glyph glyph-name="three" unicode="3" horiz-adv-x="455" 
d="M200 293l7 45h47c77 0 149 50 149 136c0 61 -42 103 -113 103c-74 0 -132 -48 -159 -122h-52c32 101 114 168 214 168c105 0 161 -59 161 -146c0 -83 -65 -150 -139 -163c59 -12 102 -57 102 -127c0 -105 -87 -196 -211 -196c-113 0 -184 65 -184 165v11h51v-4
c0 -81 50 -126 133 -126c91 0 161 63 161 150c0 67 -51 106 -121 106h-46z" />
    <glyph glyph-name="four" unicode="4" 
d="M393 614l-310 -418h229l27 152h48l-26 -152h115l-8 -46h-115l-27 -150h-48l27 150h-290l7 40l315 424h56z" />
    <glyph glyph-name="five" unicode="5" horiz-adv-x="460" 
d="M205 -9c-111 0 -183 66 -183 166v10h51v-5c0 -79 52 -125 133 -125c100 0 171 82 171 178c0 74 -47 129 -122 129c-56 0 -97 -26 -128 -58h-44l58 328h326l-9 -47h-280l-40 -223c28 24 72 46 124 46c103 0 165 -74 165 -173c0 -119 -93 -226 -222 -226z" />
    <glyph glyph-name="six" unicode="6" horiz-adv-x="495" 
d="M497 468h-49c-6 61 -39 109 -117 109c-119 0 -210 -139 -224 -294h1c33 72 101 117 174 117c108 0 184 -79 184 -183c0 -125 -96 -226 -218 -226c-128 0 -193 99 -193 231c0 214 118 401 277 401c101 0 159 -62 165 -155zM109 181c0 -73 47 -144 140 -144
c87 0 167 71 167 177c0 77 -51 141 -139 141c-87 0 -168 -73 -168 -174z" />
    <glyph glyph-name="seven" unicode="7" horiz-adv-x="429" 
d="M466 573l-327 -573h-54l325 567h-334l8 47h389z" />
    <glyph glyph-name="eight" unicode="8" horiz-adv-x="481" 
d="M78 156c0 -72 65 -121 144 -121c98 0 174 63 174 147c0 76 -66 123 -149 123c-94 0 -169 -65 -169 -149zM221 -9c-96 0 -194 53 -194 162c0 90 71 162 159 180c-47 21 -79 64 -79 120c0 93 83 170 195 170c92 0 171 -53 171 -145c0 -74 -56 -136 -130 -157
c62 -24 103 -75 103 -141c0 -111 -105 -189 -225 -189zM423 476c0 64 -55 103 -121 103c-84 0 -146 -58 -146 -128c0 -64 58 -103 122 -103c84 0 145 59 145 128z" />
    <glyph glyph-name="nine" unicode="9" horiz-adv-x="495" 
d="M33 146h49c6 -61 39 -109 117 -109c119 0 210 139 224 294h-1c-33 -72 -101 -117 -174 -117c-108 0 -184 79 -184 183c0 125 96 226 218 226c128 0 193 -99 193 -231c0 -214 -118 -401 -277 -401c-101 0 -159 62 -165 155zM421 433c0 73 -47 144 -140 144
c-87 0 -167 -71 -167 -177c0 -77 51 -141 139 -141c87 0 168 73 168 174z" />
    <glyph glyph-name="colon" unicode=":" horiz-adv-x="141" 
d="M4 35c0 22 17 39 37 39c21 0 38 -17 38 -39c0 -21 -17 -38 -38 -38c-20 0 -37 17 -37 38zM62 364c0 22 17 39 37 39c21 0 38 -17 38 -39c0 -21 -17 -38 -38 -38c-20 0 -37 17 -37 38z" />
    <glyph glyph-name="semicolon" unicode=";" horiz-adv-x="141" 
d="M-43 -101l73 102c-15 3 -26 16 -26 34c0 22 16 38 37 38c22 0 38 -16 38 -39c0 -17 -9 -31 -18 -43l-66 -92h-38zM62 364c0 22 17 39 37 39c21 0 38 -17 38 -39c0 -21 -17 -38 -38 -38c-20 0 -37 17 -37 38z" />
    <glyph glyph-name="less" unicode="&#x3c;" horiz-adv-x="397" 
d="M65 269l8 47l301 150l-9 -51l-254 -125l210 -124l-8 -47z" />
    <glyph glyph-name="equal" unicode="=" horiz-adv-x="521" 
d="M71 210l8 42h372l-7 -42h-373zM94 338l7 42h372l-7 -42h-372z" />
    <glyph glyph-name="greater" unicode="&#x3e;" horiz-adv-x="397" 
d="M355 316l-8 -47l-301 -150l9 51l254 125l-210 125l8 46z" />
    <glyph glyph-name="question" unicode="?" horiz-adv-x="422" 
d="M276 576c-88 0 -146 -53 -170 -139h-51c32 114 111 186 223 186c98 0 155 -54 155 -140c0 -93 -74 -144 -138 -205c-35 -33 -50 -52 -58 -85h-48c11 46 32 75 73 114c49 47 120 97 120 175c0 56 -38 94 -106 94zM146 35c0 22 17 39 37 39c21 0 38 -17 38 -39
c0 -21 -17 -38 -38 -38c-20 0 -37 17 -37 38z" />
    <glyph glyph-name="at" unicode="@" horiz-adv-x="774" 
d="M561 380l-61 -255c-8 -36 0 -60 45 -60c82 0 156 77 156 220c0 139 -108 236 -269 236c-206 0 -352 -161 -352 -362c0 -194 156 -274 313 -274c87 0 163 21 215 45l-5 -41c-51 -23 -127 -43 -211 -43c-184 0 -355 94 -355 313s163 403 395 403c189 0 311 -118 311 -277
c0 -173 -105 -259 -205 -259c-47 0 -81 23 -87 62c-25 -31 -69 -59 -113 -59c-79 0 -120 56 -120 132c0 112 79 227 193 227c49 0 81 -29 94 -57l12 49h44zM459 140l33 139c-12 38 -41 67 -81 67c-91 0 -148 -99 -148 -183c0 -58 33 -93 84 -93c46 0 82 31 112 70z" />
    <glyph glyph-name="A" unicode="A" horiz-adv-x="579" 
d="M350 614h48l124 -614h-50l-41 203h-270l-119 -203h-54zM363 548l-176 -300h235z" />
    <glyph glyph-name="B" unicode="B" horiz-adv-x="523" 
d="M384 316c60 -12 99 -60 99 -123c0 -123 -100 -193 -232 -193h-206l108 614h188c113 0 170 -49 170 -136c0 -96 -67 -146 -127 -162zM154 338h138c101 0 169 45 169 136c0 63 -43 94 -129 94h-138zM146 294l-43 -248h160c104 0 169 59 169 147c0 61 -41 101 -126 101h-160
z" />
    <glyph glyph-name="C" unicode="C" horiz-adv-x="576" 
d="M52 260c0 190 122 363 307 363c116 0 196 -70 210 -176h-49c-17 78 -76 128 -161 128c-150 0 -255 -141 -255 -315c0 -132 75 -221 187 -221c93 0 156 48 191 128h51c-37 -107 -125 -176 -242 -176c-141 0 -239 107 -239 269z" />
    <glyph glyph-name="D" unicode="D" horiz-adv-x="606" 
d="M104 47h134c169 0 294 129 294 312c0 128 -72 208 -205 208h-132zM45 0l108 614h180c161 0 251 -100 251 -255c0 -211 -154 -359 -354 -359h-185z" />
    <glyph glyph-name="E" unicode="E" horiz-adv-x="515" 
d="M153 614h380l-8 -47h-331l-40 -228h300l-8 -46h-300l-43 -246h330l-8 -47h-380z" />
    <glyph glyph-name="F" unicode="F" horiz-adv-x="473" 
d="M96 0h-51l108 614h355l-8 -47h-305l-41 -234h289l-9 -46h-288z" />
    <glyph glyph-name="G" unicode="G" horiz-adv-x="599" 
d="M295 -9c-144 0 -243 107 -243 269c0 190 123 363 309 363c118 0 200 -70 215 -176h-49c-18 78 -79 128 -166 128c-151 0 -257 -141 -257 -315c0 -132 75 -221 191 -221c120 0 201 76 223 204h-159l8 45h208l-7 -43c-27 -151 -126 -254 -273 -254z" />
    <glyph glyph-name="H" unicode="H" horiz-adv-x="649" 
d="M593 614h51l-108 -614h-51l52 293h-390l-51 -293h-51l108 614h51l-49 -274h390z" />
    <glyph glyph-name="I" unicode="I" horiz-adv-x="209" 
d="M204 614l-108 -614h-51l108 614h51z" />
    <glyph glyph-name="J" unicode="J" horiz-adv-x="477" 
d="M19 185h52s-1 -10 -1 -14c0 -78 48 -132 127 -132c84 0 142 52 160 159l74 416h51l-74 -420c-24 -134 -104 -203 -211 -203s-179 70 -179 175c0 7 1 19 1 19z" />
    <glyph glyph-name="K" unicode="K" horiz-adv-x="544" 
d="M204 614l-57 -320l375 320h68l-330 -281l232 -333h-59l-212 301l-86 -72l-39 -229h-51l108 614h51z" />
    <glyph glyph-name="L" unicode="L" horiz-adv-x="503" 
d="M45 0l108 614h51l-100 -567h333l-8 -47h-384z" />
    <glyph glyph-name="M" unicode="M" horiz-adv-x="729" 
d="M347 0h-32l-132 511l-89 -511h-49l108 614h51l138 -541l328 541h54l-108 -614h-49l90 511z" />
    <glyph glyph-name="N" unicode="N" horiz-adv-x="616" 
d="M611 614l-108 -614h-34l-281 540l-94 -540h-49l108 614h48l269 -519l92 519h49z" />
    <glyph glyph-name="O" unicode="O" horiz-adv-x="620" 
d="M290 39c158 0 257 151 257 314c0 127 -72 222 -187 222c-157 0 -256 -151 -256 -314c0 -127 71 -222 186 -222zM290 -9c-139 0 -238 108 -238 270c0 182 120 362 308 362c139 0 239 -108 239 -270c0 -182 -120 -362 -309 -362z" />
    <glyph glyph-name="P" unicode="P" horiz-adv-x="529" 
d="M313 265h-171l-46 -265h-51l108 614h220c104 0 166 -51 166 -148c0 -131 -96 -201 -226 -201zM196 568l-46 -256h170c102 0 168 54 168 152c0 65 -42 104 -125 104h-167z" />
    <glyph glyph-name="Q" unicode="Q" horiz-adv-x="620" 
d="M293 -9c-139 0 -240 109 -240 273c0 182 118 359 305 359c140 0 241 -109 241 -273c0 -116 -48 -229 -131 -297l36 -60l-38 -24l-35 58c-40 -23 -87 -36 -138 -36zM293 39c43 0 81 10 114 29l-43 73l38 23l41 -70c67 59 104 155 104 256c0 130 -75 225 -189 225
c-158 0 -253 -151 -253 -311c0 -130 75 -225 188 -225z" />
    <glyph glyph-name="R" unicode="R" horiz-adv-x="545" 
d="M293 271h-150l-47 -271h-51l108 614h208c106 0 172 -51 172 -147c0 -114 -78 -182 -188 -194l137 -273h-54zM195 568l-44 -252h164c103 0 167 55 167 150c0 65 -46 102 -129 102h-158z" />
    <glyph glyph-name="S" unicode="S" horiz-adv-x="499" 
d="M494 460h-50c-10 69 -64 117 -155 117c-85 0 -158 -46 -158 -132c0 -50 35 -74 95 -93l104 -33c80 -26 118 -67 118 -136c0 -120 -99 -192 -216 -192c-116 0 -205 60 -215 168h51c11 -83 80 -122 164 -122c94 0 167 51 167 143c0 41 -25 74 -89 94l-110 35
c-73 22 -118 60 -118 133c0 110 92 181 207 181c124 0 195 -69 205 -163z" />
    <glyph glyph-name="T" unicode="T" horiz-adv-x="562" 
d="M92 567l8 47h501l-9 -47h-225l-99 -567h-51l99 567h-224z" />
    <glyph glyph-name="U" unicode="U" horiz-adv-x="605" 
d="M279 -9c-121 0 -211 68 -211 197c0 17 2 35 5 58l65 368h51l-64 -365c-3 -19 -5 -37 -5 -54c0 -106 67 -157 159 -157c111 0 189 67 214 211l64 365h51l-65 -372c-30 -168 -129 -251 -264 -251z" />
    <glyph glyph-name="V" unicode="V" horiz-adv-x="577" 
d="M262 0h-46l-119 614h51l103 -543l323 543h54z" />
    <glyph glyph-name="W" unicode="W" horiz-adv-x="760" 
d="M433 614h42l41 -528l245 528h51l-287 -614h-46l-43 523l-245 -523h-46l-48 614h49l40 -528z" />
    <glyph glyph-name="X" unicode="X" horiz-adv-x="545" 
d="M589 614l-272 -304l157 -310h-54l-137 272l-243 -272h-60l282 315l-152 299h53l133 -261l233 261h60z" />
    <glyph glyph-name="Y" unicode="Y" horiz-adv-x="535" 
d="M283 309l247 305h57l-285 -352l-46 -262h-51l46 262l-162 352h54z" />
    <glyph glyph-name="Z" unicode="Z" horiz-adv-x="519" 
d="M456 47l-8 -47h-443l6 39l466 528h-367l9 47h433l-7 -39l-465 -528h376z" />
    <glyph glyph-name="bracketleft" unicode="[" horiz-adv-x="311" 
d="M194 605l-113 -644h158l-8 -45h-205l129 734h205l-8 -45h-158z" />
    <glyph glyph-name="backslash" unicode="\" horiz-adv-x="306" 
d="M139 650l119 -734h-47l-119 734h47z" />
    <glyph glyph-name="bracketright" unicode="]" horiz-adv-x="311" 
d="M138 -39l113 644h-158l8 45h205l-129 -734h-205l8 45h158z" />
    <glyph glyph-name="asciicircum" unicode="^" horiz-adv-x="321" 
d="M200 614h42l83 -181h-51l-59 129l-106 -129h-56z" />
    <glyph glyph-name="underscore" unicode="_" horiz-adv-x="352" 
d="M-24 -87l8 45h312l-8 -45h-312z" />
    <glyph glyph-name="quoteleft" unicode="&#x2018;" horiz-adv-x="141" 
d="M192 614l-70 -98c16 -4 27 -17 27 -35c0 -21 -17 -38 -38 -38s-37 16 -37 40c0 16 8 30 17 43l63 88h38z" />
    <glyph glyph-name="a" unicode="a" horiz-adv-x="441" 
d="M388 300l-52 -300h-48l7 42c-26 -26 -75 -49 -126 -49c-84 0 -147 51 -147 125c0 91 86 148 179 148c60 0 106 -28 124 -51l15 82c1 9 2 21 2 28c0 49 -31 84 -91 84c-57 0 -97 -24 -124 -76h-49c30 75 97 120 176 120c88 0 137 -50 137 -125c0 -8 -1 -18 -3 -28z
M305 101l11 57c-10 36 -56 66 -115 66c-61 0 -131 -33 -131 -105c0 -52 49 -84 106 -84s109 28 129 66z" />
    <glyph glyph-name="b" unicode="b" horiz-adv-x="493" 
d="M94 68l-12 -68h-49l114 650h49l-48 -274c32 40 86 77 146 77c111 0 161 -82 161 -186c0 -141 -90 -276 -231 -276c-66 0 -112 38 -130 77zM138 317l-34 -192c20 -57 63 -88 119 -88c121 0 182 120 182 230c0 83 -39 140 -118 140c-59 0 -109 -33 -149 -90z" />
    <glyph glyph-name="c" unicode="c" horiz-adv-x="442" 
d="M341 129h50c-27 -83 -92 -138 -183 -138c-107 0 -170 78 -170 192c0 139 83 270 225 270c94 0 147 -56 154 -138h-50c-6 57 -44 93 -104 93c-108 0 -175 -102 -175 -225c0 -90 47 -147 123 -147c64 0 109 36 130 93z" />
    <glyph glyph-name="d" unicode="d" horiz-adv-x="493" 
d="M399 376l48 274h49l-114 -650h-49l12 68c-32 -40 -86 -77 -146 -77c-111 0 -161 82 -161 186c0 138 90 276 231 276c66 0 112 -38 130 -77zM355 127l34 192c-20 57 -63 88 -119 88c-121 0 -182 -123 -182 -230c0 -83 39 -140 118 -140c59 0 109 33 149 90z" />
    <glyph glyph-name="e" unicode="e" horiz-adv-x="454" 
d="M349 129h50c-27 -82 -97 -138 -188 -138c-108 0 -173 75 -173 193c0 129 78 269 226 269c106 0 158 -71 158 -175c0 -16 -2 -34 -6 -60h-326c-1 -12 -2 -23 -2 -34c0 -95 48 -149 125 -149c63 0 115 35 136 94zM263 409c-90 0 -146 -69 -167 -152h276c1 9 2 17 2 25
c0 68 -32 127 -111 127z" />
    <glyph glyph-name="f" unicode="f" horiz-adv-x="258" 
d="M345 650l-8 -45c-13 6 -26 9 -42 9c-50 0 -88 -33 -99 -95l-13 -75h104l-8 -43h-104l-70 -401h-49l70 401h-72l8 43h72l14 80c14 81 71 135 145 135c20 0 38 -3 52 -9z" />
    <glyph glyph-name="g" unicode="g" horiz-adv-x="492" 
d="M338 28l9 50c-32 -40 -85 -75 -145 -75c-111 0 -163 79 -163 181c0 135 89 269 230 269c67 0 112 -39 130 -77l12 68h49l-73 -415c-24 -135 -100 -208 -210 -208c-100 0 -161 52 -164 135h49c4 -62 49 -92 115 -92c91 0 142 63 161 164zM357 138l32 182
c-19 55 -63 87 -119 87c-121 0 -182 -118 -182 -223c0 -81 42 -136 121 -136c59 0 108 35 148 90z" />
    <glyph glyph-name="h" unicode="h" horiz-adv-x="483" 
d="M303 453c84 0 130 -51 130 -125c0 -11 -1 -22 -3 -34l-51 -294h-49l49 287c2 11 3 21 3 31c0 53 -28 89 -91 89c-65 0 -124 -44 -154 -96l-55 -311h-49l114 650h49l-49 -278c34 43 91 81 156 81z" />
    <glyph glyph-name="i" unicode="i" horiz-adv-x="192" 
d="M160 444l-78 -444h-49l78 444h49zM193 579c0 -19 -15 -34 -34 -34s-34 15 -34 34c0 18 15 34 34 34s34 -16 34 -34z" />
    <glyph glyph-name="j" unicode="j" horiz-adv-x="192" 
d="M-86 -173l8 45c6 -4 15 -7 26 -7c39 0 63 17 74 76l89 503h49l-89 -508c-14 -76 -56 -115 -123 -115c-17 0 -27 3 -34 6zM193 579c0 -19 -15 -34 -34 -34s-34 15 -34 34c0 18 15 34 34 34s34 -16 34 -34z" />
    <glyph glyph-name="k" unicode="k" horiz-adv-x="445" 
d="M334 0l-158 223l-63 -50l-31 -173h-49l114 650h49l-74 -419l271 213h68l-247 -193l176 -251h-56z" />
    <glyph glyph-name="l" unicode="l" horiz-adv-x="192" 
d="M196 650l-114 -650h-49l114 650h49z" />
    <glyph glyph-name="m" unicode="m" horiz-adv-x="713" 
d="M397 369c38 47 88 84 150 84c79 0 116 -50 116 -119c0 -12 -2 -26 -4 -39l-51 -295h-49l49 286c3 14 4 26 4 38c0 50 -22 83 -76 83c-62 0 -109 -46 -136 -96l-55 -311h-49l49 286c3 14 4 26 4 38c0 50 -22 83 -76 83c-62 0 -108 -46 -136 -96l-55 -311h-49l78 444h49
l-12 -70c31 42 77 79 140 79c62 0 99 -35 109 -84z" />
    <glyph glyph-name="n" unicode="n" horiz-adv-x="483" 
d="M33 0l78 444h49l-12 -72c34 43 90 81 155 81c84 0 130 -51 130 -125c0 -11 -1 -22 -3 -34l-51 -294h-49l49 287c2 11 3 21 3 31c0 53 -28 89 -91 89c-65 0 -124 -44 -154 -96l-55 -311h-49z" />
    <glyph glyph-name="o" unicode="o" horiz-adv-x="471" 
d="M211 35c97 0 172 91 172 228c0 88 -47 146 -123 146c-97 0 -172 -91 -172 -228c0 -88 47 -146 123 -146zM211 -9c-108 0 -173 76 -173 190c0 159 98 272 222 272c108 0 173 -76 173 -190c0 -159 -98 -272 -222 -272z" />
    <glyph glyph-name="p" unicode="p" horiz-adv-x="493" 
d="M94 68l-42 -238h-49l108 614h49l-12 -68c32 40 86 77 146 77c111 0 161 -82 161 -186c0 -141 -90 -276 -231 -276c-66 0 -112 38 -130 77zM138 317l-34 -192c20 -57 63 -88 119 -88c121 0 182 120 182 230c0 83 -39 140 -118 140c-59 0 -109 -33 -149 -90z" />
    <glyph glyph-name="q" unicode="q" horiz-adv-x="492" 
d="M399 376l12 68h49l-108 -614h-49l42 238c-32 -40 -86 -77 -146 -77c-111 0 -161 82 -161 186c0 138 90 276 231 276c66 0 112 -38 130 -77zM355 127l34 192c-20 57 -63 88 -119 88c-121 0 -182 -123 -182 -230c0 -83 39 -140 118 -140c59 0 109 33 149 90z" />
    <glyph glyph-name="r" unicode="r" horiz-adv-x="301" 
d="M319 447l-8 -49c-11 5 -24 8 -40 8c-54 0 -104 -39 -134 -96l-55 -310h-49l78 444h49l-12 -71c28 44 79 80 134 80c17 0 29 -3 37 -6z" />
    <glyph glyph-name="s" unicode="s" horiz-adv-x="398" 
d="M14 116h49c9 -54 54 -82 118 -82c57 0 114 25 114 90c0 32 -22 54 -69 71l-75 25c-54 18 -89 43 -89 101c0 83 75 132 157 132c96 0 148 -50 156 -122h-48c-10 49 -43 79 -108 79c-56 0 -109 -29 -109 -86c0 -35 25 -49 68 -64l71 -24c65 -21 94 -56 94 -108
c0 -87 -74 -137 -162 -137c-95 0 -161 48 -167 125z" />
    <glyph glyph-name="t" unicode="t" horiz-adv-x="297" 
d="M70 107l54 294h-75l7 43h77l20 114h49l-20 -114h112l-7 -43h-114l-52 -288c-1 -10 -3 -21 -3 -29c0 -34 19 -48 53 -48c22 0 45 7 64 17l-8 -47c-19 -9 -45 -15 -68 -15c-57 0 -92 28 -92 83c0 8 1 18 3 33z" />
    <glyph glyph-name="u" unicode="u" horiz-adv-x="481" 
d="M447 444l-78 -444h-49l12 71c-34 -42 -90 -80 -155 -80c-83 0 -128 50 -128 124c0 11 1 23 3 35l51 294h50l-51 -288c-2 -11 -3 -23 -3 -33c0 -52 27 -87 89 -87c66 0 125 45 155 97l55 311h49z" />
    <glyph glyph-name="v" unicode="v" horiz-adv-x="432" 
d="M186 0h-43l-86 444h50l70 -376l224 376h53z" />
    <glyph glyph-name="w" unicode="w" horiz-adv-x="604" 
d="M360 444l30 -366l185 366h50l-227 -444h-42l-32 367l-183 -367h-43l-41 444h46l35 -366l182 366h40z" />
    <glyph glyph-name="x" unicode="x" horiz-adv-x="431" 
d="M445 444l-201 -219l120 -225h-51l-101 191l-174 -191h-57l210 228l-114 216h51l96 -182l165 182h56z" />
    <glyph glyph-name="y" unicode="y" horiz-adv-x="432" 
d="M84 -170h-51l108 180l-84 434h50l70 -375l223 375h54z" />
    <glyph glyph-name="z" unicode="z" horiz-adv-x="415" 
d="M347 43l-7 -43h-336l6 35l335 366h-266l8 43h329l-6 -35l-336 -366h273z" />
    <glyph glyph-name="braceleft" unicode="{" horiz-adv-x="334" 
d="M151 213l-36 -207c-5 -31 7 -45 34 -45h113l-8 -45h-112c-54 0 -84 38 -74 93l36 206c5 29 -6 45 -34 45h-42l8 46h42c28 0 45 15 50 45l36 206c9 55 54 93 107 93h112l-8 -45h-113c-27 0 -45 -14 -50 -45l-36 -207c-6 -33 -26 -57 -53 -71c22 -14 34 -37 28 -69z" />
    <glyph glyph-name="bar" unicode="|" horiz-adv-x="205" 
d="M29 -84l129 734h47l-129 -734h-47z" />
    <glyph glyph-name="braceright" unicode="}" horiz-adv-x="334" 
d="M203 353l36 207c5 31 -7 45 -34 45h-113l8 45h112c54 0 84 -38 74 -93l-36 -206c-5 -29 6 -45 34 -45h42l-8 -46h-42c-28 0 -45 -15 -50 -45l-36 -206c-9 -55 -54 -93 -107 -93h-112l8 45h113c27 0 45 14 50 45l36 207c6 33 26 57 53 71c-22 14 -34 37 -28 69z" />
    <glyph glyph-name="asciitilde" unicode="~" horiz-adv-x="406" 
d="M339 329h45c-13 -70 -52 -114 -109 -114c-64 0 -84 72 -130 72c-32 0 -54 -27 -62 -68h-45c13 69 52 113 109 113c64 0 83 -71 131 -71c31 0 53 26 61 68z" />
    <glyph glyph-name="exclamdown" unicode="&#xa1;" horiz-adv-x="209" 
d="M148 326l-66 -422h-56l85 422h37zM195 483c0 -22 -17 -39 -38 -39c-20 0 -37 17 -37 39c0 21 17 38 37 38c21 0 38 -17 38 -38z" />
    <glyph glyph-name="cent" unicode="&#xa2;" horiz-adv-x="436" 
d="M40 193c0 137 81 267 220 270l16 90h45l-17 -94c70 -14 109 -67 115 -136h-50c-5 58 -43 95 -105 95c-108 0 -174 -102 -174 -225c0 -90 46 -147 122 -147c65 0 111 37 132 95h49c-25 -80 -85 -135 -170 -140l-15 -85h-45l16 87c-87 14 -139 87 -139 190z" />
    <glyph glyph-name="sterling" unicode="&#xa3;" horiz-adv-x="483" 
d="M205 423l-18 -100h169l-7 -42h-169l-25 -145c-6 -35 -22 -71 -40 -91h306l-7 -45h-421l8 45h65c18 23 32 47 40 91l26 145h-90l7 42h90l18 100c22 123 89 200 194 200c98 0 148 -55 150 -133h-48c-2 56 -39 88 -102 88c-78 0 -128 -55 -146 -155z" />
    <glyph glyph-name="fraction" unicode="&#x2044;" horiz-adv-x="204" 
d="M392 614l-525 -614h-47l524 614h48z" />
    <glyph glyph-name="yen" unicode="&#xa5;" horiz-adv-x="516" 
d="M62 144l7 41h158l13 77h-157l7 41h145l-136 311h52l123 -288l226 288h57l-248 -311h146l-7 -41h-159l-13 -77h158l-7 -41h-158l-24 -144h-50l25 144h-158z" />
    <glyph glyph-name="florin" unicode="&#x192;" horiz-adv-x="378" 
d="M77 295l8 42h86l48 157c24 80 75 129 144 129c27 0 46 -5 62 -12l-6 -46c-18 9 -34 14 -56 14c-47 0 -77 -28 -95 -89l-47 -153h95l-8 -42h-100l-103 -340c-24 -80 -66 -128 -136 -128c-27 0 -46 5 -62 12l6 46c18 -9 34 -14 56 -14c47 0 68 28 87 89l102 335h-81z" />
    <glyph glyph-name="section" unicode="&#xa7;" horiz-adv-x="448" 
d="M317 281l-152 118c-33 -11 -73 -42 -73 -88c0 -32 24 -51 55 -75l152 -118c33 11 73 42 73 88c0 32 -24 51 -55 75zM324 85c7 -14 12 -29 12 -48c0 -91 -81 -143 -163 -143c-97 0 -145 49 -148 124h46c8 -54 39 -82 103 -82c63 0 113 33 113 97c0 30 -16 46 -49 72
l-121 93c-40 31 -72 59 -72 109c0 57 41 104 95 125c-7 13 -12 28 -12 48c0 91 81 143 163 143c97 0 144 -49 148 -125h-47c-7 54 -38 82 -102 82c-63 0 -113 -32 -113 -97c0 -29 16 -45 49 -71l121 -94c40 -30 72 -59 72 -108c0 -58 -42 -104 -95 -125z" />
    <glyph glyph-name="quotesingle" unicode="'" horiz-adv-x="126" 
d="M73 418l35 196h46l-35 -196h-46z" />
    <glyph glyph-name="quotedblleft" unicode="&#x201c;" horiz-adv-x="264" 
d="M192 614l-70 -98c16 -4 27 -17 27 -35c0 -21 -17 -38 -38 -38s-37 16 -37 40c0 16 8 30 17 43l63 88h38zM315 614l-70 -98c16 -4 27 -17 27 -35c0 -21 -17 -38 -38 -38s-37 16 -37 40c0 16 8 30 17 43l63 88h38z" />
    <glyph glyph-name="guillemotleft" unicode="&#xab;" horiz-adv-x="314" 
d="M145 86h-47l-67 136l115 136h53l-119 -140zM268 86h-46l-68 136l116 136h52l-119 -140z" />
    <glyph glyph-name="guilsinglleft" unicode="&#x2039;" horiz-adv-x="192" 
d="M146 86h-48l-67 136l115 136h54l-119 -140z" />
    <glyph glyph-name="guilsinglright" unicode="&#x203a;" horiz-adv-x="192" 
d="M57 358h48l67 -136l-115 -136h-54l119 140z" />
    <glyph glyph-name="fi" unicode="&#xfb01;" horiz-adv-x="450" 
d="M418 444l-78 -444h-49l78 444h49zM451 579c0 -19 -15 -34 -34 -34s-34 15 -34 34c0 18 15 34 34 34s34 -16 34 -34zM345 650l-8 -45c-13 6 -26 9 -42 9c-50 0 -88 -33 -99 -95l-13 -75h104l-8 -43h-104l-70 -401h-49l70 401h-72l8 43h72l14 80c14 81 71 135 145 135
c20 0 38 -3 52 -9z" />
    <glyph glyph-name="fl" unicode="&#xfb02;" horiz-adv-x="450" 
d="M454 650l-114 -650h-49l114 650h49zM345 650l-8 -45c-13 6 -26 9 -42 9c-50 0 -88 -33 -99 -95l-13 -75h104l-8 -43h-104l-70 -401h-49l70 401h-72l8 43h72l14 80c14 81 71 135 145 135c20 0 38 -3 52 -9z" />
    <glyph glyph-name="endash" unicode="&#x2013;" horiz-adv-x="475" 
d="M43 239l7 41h395l-7 -41h-395z" />
    <glyph glyph-name="dagger" unicode="&#x2020;" horiz-adv-x="300" 
d="M83 519l7 39h99l16 92h40l-16 -92h99l-7 -39h-99l-35 -204h-41l36 204h-99z" />
    <glyph glyph-name="daggerdbl" unicode="&#x2021;" horiz-adv-x="304" 
d="M84 522l7 38h99l16 90h40l-16 -90h100l-7 -38h-100l-14 -79h100l-7 -38h-99l-16 -90h-40l16 90h-100l7 38h99l14 79h-99z" />
    <glyph glyph-name="periodcentered" unicode="&#xb7;" horiz-adv-x="151" 
d="M38 261c0 22 17 39 37 39c21 0 38 -17 38 -39c0 -21 -17 -38 -38 -38c-20 0 -37 17 -37 38z" />
    <glyph glyph-name="paragraph" unicode="&#xb6;" horiz-adv-x="446" 
d="M274 -90l124 704h43l-124 -704h-43zM163 -90l75 429c-86 0 -173 40 -173 121c0 112 124 154 226 154h39l-124 -704h-43z" />
    <glyph glyph-name="bullet" unicode="&#x2022;" horiz-adv-x="332" 
d="M299 260c0 -75 -56 -128 -128 -128s-128 53 -128 128s56 128 128 128s128 -53 128 -128z" />
    <glyph glyph-name="quotesinglbase" unicode="&#x201a;" horiz-adv-x="126" 
d="M-31 -98l70 98c-16 4 -27 17 -27 35c0 21 17 38 38 38s37 -16 37 -40c0 -16 -8 -30 -17 -43l-63 -88h-38z" />
    <glyph glyph-name="quotedblbase" unicode="&#x201e;" horiz-adv-x="264" 
d="M-31 -98l70 98c-16 4 -27 17 -27 35c0 21 17 38 38 38s37 -16 37 -40c0 -16 -8 -30 -17 -43l-63 -88h-38zM92 -98l70 98c-16 4 -27 17 -27 35c0 21 17 38 38 38s37 -16 37 -40c0 -16 -8 -30 -17 -43l-63 -88h-38z" />
    <glyph glyph-name="quotedblright" unicode="&#x201d;" horiz-adv-x="264" 
d="M57 452l70 98c-16 4 -27 17 -27 35c0 21 17 38 38 38s37 -16 37 -40c0 -16 -8 -30 -17 -43l-63 -88h-38zM180 452l70 98c-16 4 -27 17 -27 35c0 21 17 38 38 38s37 -16 37 -40c0 -16 -8 -30 -17 -43l-63 -88h-38z" />
    <glyph glyph-name="guillemotright" unicode="&#xbb;" horiz-adv-x="314" 
d="M180 358h47l67 -136l-115 -136h-53l119 140zM57 358h46l68 -136l-116 -136h-52l119 140z" />
    <glyph glyph-name="ellipsis" unicode="&#x2026;" horiz-adv-x="462" 
d="M4 35c0 22 17 39 37 39c21 0 38 -17 38 -39c0 -21 -17 -38 -38 -38c-20 0 -37 17 -37 38zM164 35c0 22 17 39 38 39s38 -17 38 -39c0 -21 -17 -38 -38 -38s-38 17 -38 38zM325 35c0 22 17 39 38 39c20 0 37 -17 37 -39c0 -21 -17 -38 -37 -38c-21 0 -38 17 -38 38z" />
    <glyph glyph-name="perthousand" unicode="&#x2030;" horiz-adv-x="884" 
d="M196 623c69 0 122 -54 122 -122c0 -67 -55 -132 -130 -132c-69 0 -123 53 -123 121s56 133 131 133zM189 411c46 0 87 39 87 89c0 44 -37 80 -82 80c-46 0 -86 -39 -86 -89c0 -44 36 -80 81 -80zM43 0l495 614h47l-495 -614h-47zM433 -9c-69 0 -123 54 -123 122
c0 67 55 132 131 132c69 0 122 -53 122 -121s-55 -133 -130 -133zM439 203c-46 0 -86 -39 -86 -89c0 -44 36 -80 81 -80c46 0 87 39 87 89c0 44 -37 80 -82 80zM718 -9c-69 0 -122 54 -122 122c0 67 55 132 131 132c68 0 122 -53 122 -121s-55 -133 -131 -133zM725 203
c-46 0 -87 -39 -87 -89c0 -44 37 -80 82 -80c46 0 86 39 86 89c0 44 -36 80 -81 80z" />
    <glyph glyph-name="questiondown" unicode="&#xbf;" horiz-adv-x="422" 
d="M163 -58c88 0 146 53 170 139h51c-32 -114 -111 -186 -223 -186c-98 0 -155 54 -155 140c0 93 74 144 138 205c35 33 50 52 58 85h48c-11 -46 -32 -75 -73 -114c-49 -47 -120 -97 -120 -175c0 -56 38 -94 106 -94zM293 483c0 -22 -17 -39 -37 -39c-21 0 -38 17 -38 39
c0 21 17 38 38 38c20 0 37 -17 37 -38z" />
    <glyph glyph-name="grave" unicode="`" 
d="M306 520h-44l-64 130h48z" />
    <glyph glyph-name="acute" unicode="&#xb4;" 
d="M221 520h-50l106 130h53z" />
    <glyph glyph-name="circumflex" unicode="&#x2c6;" 
d="M295 644l69 -131h-43l-51 97l-86 -97h-48l115 131h44z" />
    <glyph glyph-name="tilde" unicode="&#x2dc;" 
d="M347 625h36c-12 -63 -42 -105 -86 -105c-48 0 -62 65 -96 65c-24 0 -41 -24 -48 -62h-36c11 63 42 105 86 105c49 0 61 -65 96 -65c24 0 41 25 48 62z" />
    <glyph glyph-name="macron" unicode="&#xaf;" 
d="M145 537l8 41h201l-7 -41h-202z" />
    <glyph glyph-name="breve" unicode="&#x2d8;" 
d="M234 506c-55 0 -98 42 -84 120h40c-10 -52 10 -83 47 -83c38 0 67 31 77 83h40c-15 -78 -61 -120 -120 -120z" />
    <glyph glyph-name="dotaccent" unicode="&#x2d9;" 
d="M284 579c0 -19 -15 -34 -34 -34s-34 15 -34 34c0 18 15 34 34 34s34 -16 34 -34z" />
    <glyph glyph-name="dieresis" unicode="&#xa8;" 
d="M155 571c0 18 14 32 33 32c18 0 32 -14 32 -32c0 -19 -14 -33 -32 -33c-19 0 -33 14 -33 33zM280 571c0 18 14 32 32 32s33 -14 33 -32c0 -19 -15 -33 -33 -33s-32 14 -32 33z" />
    <glyph glyph-name="ring" unicode="&#x2da;" 
d="M247 531c27 0 51 21 51 51c0 27 -21 47 -47 47c-27 0 -51 -21 -51 -51c0 -27 21 -47 47 -47zM246 499c-45 0 -78 34 -78 77c0 45 36 85 84 85c45 0 78 -34 78 -77c0 -45 -36 -85 -84 -85z" />
    <glyph glyph-name="cedilla" unicode="&#xb8;" 
d="M231 -175h-49l82 127h50z" />
    <glyph glyph-name="hungarumlaut" unicode="&#x2dd;" 
d="M169 520h-46l96 130h47zM280 520h-46l97 130h46z" />
    <glyph glyph-name="ogonek" unicode="&#x2db;" 
d="M268 4h40c-53 -75 -73 -101 -73 -130c0 -13 7 -19 19 -19c14 0 25 5 40 14l-7 -36c-14 -9 -28 -15 -45 -15c-29 0 -49 16 -49 48c0 42 32 78 75 138z" />
    <glyph glyph-name="caron" unicode="&#x2c7;" 
d="M205 515l-69 130h43l51 -96l86 96h48l-115 -130h-44z" />
    <glyph glyph-name="emdash" unicode="&#x2014;" horiz-adv-x="846" 
d="M43 239l7 41h766l-7 -41h-766z" />
    <glyph glyph-name="AE" unicode="&#xc6;" horiz-adv-x="867" 
d="M481 614h404l-9 -47h-320l-40 -228h289l-8 -46h-289l-43 -246h320l-8 -47h-371l36 203h-234l-163 -203h-57zM507 573l-262 -325h205z" />
    <glyph glyph-name="ordfeminine" unicode="&#xaa;" horiz-adv-x="292" 
d="M305 517l-35 -196h-44l4 25c-15 -15 -47 -30 -80 -30c-56 0 -98 33 -98 84c0 61 58 100 120 100c38 0 67 -17 79 -31l9 48c1 5 1 12 1 17c0 28 -18 50 -55 50c-34 0 -58 -15 -74 -45h-44c19 51 65 83 123 83c60 0 96 -33 96 -85c0 -6 -1 -12 -2 -20zM238 391l6 34
c-6 21 -33 39 -69 39c-37 0 -79 -19 -79 -62c0 -31 29 -50 64 -50c34 0 65 16 78 39z" />
    <glyph glyph-name="Lslash" unicode="&#x141;" horiz-adv-x="515" 
d="M41 246l9 49l64 24l52 295h51l-49 -277l153 58l-9 -49l-153 -58l-42 -241h333l-8 -47h-384l47 270z" />
    <glyph glyph-name="Oslash" unicode="&#xd8;" horiz-adv-x="630" 
d="M49 7l63 73c-35 46 -55 108 -55 181c0 182 120 362 308 362c64 0 121 -23 162 -65l52 60l31 -24l-57 -66c32 -46 51 -105 51 -175c0 -182 -120 -362 -309 -362c-62 0 -115 21 -156 59l-58 -67zM109 261c0 -56 13 -105 37 -142l349 402c-32 34 -76 54 -130 54
c-157 0 -256 -151 -256 -314zM295 39c158 0 257 151 257 314c0 52 -12 99 -33 136l-348 -402c31 -30 73 -48 124 -48z" />
    <glyph glyph-name="OE" unicode="&#x152;" horiz-adv-x="839" 
d="M857 614l-9 -47h-320l-40 -228h290l-8 -46h-290l-43 -246h320l-8 -47h-446c-161 0 -251 100 -251 255c0 211 154 359 354 359h451zM104 255c0 -128 72 -208 205 -208h78l91 520h-80c-169 0 -294 -129 -294 -312z" />
    <glyph glyph-name="ordmasculine" unicode="&#xba;" horiz-adv-x="311" 
d="M183 355c58 0 103 57 103 140c0 53 -28 88 -74 88c-59 0 -103 -57 -103 -140c0 -53 27 -88 74 -88zM181 315c-73 0 -119 51 -119 128c0 105 67 179 151 179c74 0 119 -51 119 -127c0 -106 -66 -180 -151 -180z" />
    <glyph glyph-name="ae" unicode="&#xe6;" horiz-adv-x="736" 
d="M631 129h50c-27 -82 -97 -138 -188 -138c-79 0 -134 43 -155 113c-36 -60 -103 -111 -187 -111c-77 0 -129 47 -129 119c0 94 84 146 191 146h121c7 36 9 50 9 66c0 49 -30 85 -91 85c-57 0 -97 -24 -123 -76h-49c29 75 96 120 175 120c70 0 113 -37 128 -91
c36 51 91 91 162 91c107 0 159 -71 159 -175c0 -16 -2 -35 -7 -61h-326c-1 -11 -2 -25 -2 -36c0 -95 48 -146 125 -146c64 0 116 35 137 94zM313 138l14 79h-115c-74 0 -143 -26 -143 -103c0 -49 38 -79 89 -79c73 0 127 47 155 103zM544 409c-88 0 -144 -69 -165 -151h275
c1 8 1 16 1 25c0 68 -31 126 -111 126z" />
    <glyph glyph-name="dotlessi" unicode="&#x131;" horiz-adv-x="192" 
d="M160 444l-78 -444h-49l78 444h49z" />
    <glyph glyph-name="lslash" unicode="&#x142;" horiz-adv-x="231" 
d="M215 650l-43 -242l74 45l-8 -48l-74 -45l-63 -360h-49l58 333l-66 -40l8 48l67 41l47 268h49z" />
    <glyph glyph-name="oslash" unicode="&#xf8;" horiz-adv-x="481" 
d="M30 -9l51 61c-25 33 -38 77 -38 129c0 159 98 272 222 272c47 0 86 -15 115 -41l49 58l28 -20l-54 -64c23 -32 35 -74 35 -123c0 -159 -98 -272 -222 -272c-45 0 -82 13 -111 36l-47 -57zM92 181c0 -36 7 -67 21 -91l238 286c-21 21 -49 33 -86 33
c-97 0 -173 -91 -173 -228zM216 35c97 0 173 91 173 228c0 33 -6 61 -18 84l-236 -284c20 -18 47 -28 81 -28z" />
    <glyph glyph-name="oe" unicode="&#x153;" horiz-adv-x="791" 
d="M686 129h50c-27 -82 -97 -138 -188 -138c-80 0 -137 46 -157 119c-38 -72 -104 -119 -180 -119c-108 0 -173 76 -173 190c0 159 98 272 222 272c80 0 135 -49 157 -120c36 67 98 120 183 120c106 0 158 -71 158 -175c0 -16 -1 -34 -6 -60h-327c-1 -10 -1 -24 -1 -34
c0 -95 48 -149 125 -149c64 0 116 35 137 94zM211 35c97 0 172 91 172 228c0 88 -47 146 -123 146c-97 0 -172 -91 -172 -228c0 -88 47 -146 123 -146zM599 409c-89 0 -145 -68 -166 -152h275c1 9 2 17 2 25c0 68 -32 127 -111 127z" />
    <glyph glyph-name="germandbls" unicode="&#xdf;" horiz-adv-x="501" 
d="M336 369c67 -11 120 -64 120 -155c0 -137 -104 -221 -215 -221c-41 0 -73 9 -97 23l9 48c25 -20 55 -26 88 -26c92 0 167 65 167 177c0 83 -54 130 -147 130h-43l8 44h43c76 0 142 57 142 133c0 53 -32 93 -98 93c-85 0 -135 -62 -150 -148l-81 -467h-49l81 467
c19 109 91 192 200 192c97 0 146 -58 146 -132c0 -85 -63 -139 -124 -158z" />
    <glyph glyph-name="onesuperior" unicode="&#xb9;" horiz-adv-x="221" 
d="M215 615l-58 -330h-44l49 278l-90 -42l8 45l107 49h28z" />
    <glyph glyph-name="trademark" unicode="&#x2122;" horiz-adv-x="574" 
d="M73 581l5 33h211l-6 -33h-85l-40 -221h-39l40 221h-86zM430 360h-28l-42 188l-34 -188h-37l45 254h45l46 -202l117 202h47l-45 -254h-38l33 188z" />
    <glyph glyph-name="Eth" unicode="&#xd0;" horiz-adv-x="618" 
d="M50 295l8 45h60l48 274h180c161 0 251 -100 251 -255c0 -211 -154 -359 -354 -359h-185l52 295h-60zM117 47h134c169 0 294 129 294 312c0 128 -72 208 -205 208h-132l-40 -227h129l-7 -45h-130z" />
    <glyph glyph-name="onehalf" unicode="&#xbd;" horiz-adv-x="653" 
d="M607 614l-524 -614h-48l525 614h47zM244 615l-59 -330h-42l49 279l-94 -44l8 45l111 50h27zM349 30l138 125c31 28 67 60 67 95c0 28 -18 46 -49 46c-40 0 -66 -29 -76 -67h-45c17 62 61 106 125 106c56 0 89 -31 89 -79c0 -52 -39 -86 -84 -126l-101 -91h152l-7 -39
h-214z" />
    <glyph glyph-name="plusminus" unicode="&#xb1;" horiz-adv-x="516" 
d="M284 495h42l-22 -126h163l-7 -42h-164l-22 -126h-43l22 126h-163l8 42h163zM51 104l8 43h369l-8 -43h-369z" />
    <glyph glyph-name="Thorn" unicode="&#xde;" horiz-adv-x="529" 
d="M291 140h-171l-24 -140h-51l108 614h50l-21 -125h169c104 0 166 -51 166 -148c0 -131 -96 -201 -226 -201zM174 443l-46 -256h170c102 0 168 54 168 152c0 65 -41 104 -125 104h-167z" />
    <glyph glyph-name="onequarter" unicode="&#xbc;" horiz-adv-x="643" 
d="M607 614l-524 -614h-48l525 614h47zM244 615l-59 -330h-42l49 279l-94 -44l8 45l111 50h27zM528 330l-156 -218h104l13 75h40l-13 -75h57l-7 -37h-57l-13 -75h-39l12 75h-152l6 33l161 222h44z" />
    <glyph glyph-name="divide" unicode="&#xf7;" horiz-adv-x="514" 
d="M79 273l7 43h372l-7 -43h-372zM258 447c0 21 17 38 37 38c19 0 36 -17 36 -38c0 -20 -17 -36 -36 -36c-20 0 -37 16 -37 36zM206 142c0 20 16 37 36 37s36 -17 36 -37c0 -21 -16 -37 -36 -37s-36 16 -36 37z" />
    <glyph glyph-name="degree" unicode="&#xb0;" horiz-adv-x="316" 
d="M203 623c59 0 105 -45 105 -105c0 -68 -53 -124 -120 -124c-60 0 -105 45 -105 105c0 68 52 124 120 124zM199 583c-39 0 -76 -34 -76 -83c0 -38 29 -66 68 -66s76 34 76 83c0 38 -29 66 -68 66z" />
    <glyph glyph-name="thorn" unicode="&#xfe;" horiz-adv-x="493" 
d="M94 68l-42 -238h-49l144 820h49l-48 -274c32 40 86 77 146 77c111 0 161 -82 161 -186c0 -141 -90 -276 -231 -276c-66 0 -112 38 -130 77zM138 317l-34 -192c20 -57 63 -88 119 -88c121 0 182 120 182 230c0 83 -39 140 -118 140c-59 0 -109 -33 -149 -90z" />
    <glyph glyph-name="threequarters" unicode="&#xbe;" horiz-adv-x="685" 
d="M167 435l6 35h23c37 0 71 22 71 64c0 27 -19 46 -51 46c-35 0 -61 -23 -73 -57h-45c16 57 63 96 121 96c59 0 91 -33 91 -81c0 -43 -32 -78 -68 -87c29 -8 48 -32 48 -66c0 -58 -49 -106 -117 -106c-64 0 -104 37 -104 93v6h45v-2c0 -38 21 -58 60 -58c42 0 74 27 74 68
c0 31 -23 49 -57 49h-24zM649 614l-525 -614h-48l525 614h48zM570 330l-157 -218h104l13 75h40l-13 -75h58l-7 -37h-58l-12 -75h-40l12 75h-152l6 33l162 222h44z" />
    <glyph glyph-name="twosuperior" unicode="&#xb2;" horiz-adv-x="283" 
d="M42 314l138 126c31 28 66 59 66 94c0 28 -18 46 -49 46c-39 0 -64 -28 -74 -66h-45c16 61 60 106 124 106c56 0 89 -31 89 -79c0 -53 -38 -86 -83 -126l-101 -91h151l-7 -39h-214z" />
    <glyph glyph-name="registered" unicode="&#xae;" horiz-adv-x="418" 
d="M423 440c0 -106 -82 -183 -181 -183s-181 77 -181 183s82 183 181 183s181 -77 181 -183zM395 440c0 90 -69 155 -153 155s-153 -65 -153 -155c0 -91 69 -156 153 -156s153 65 153 156zM238 420h-29v-74h-34v192h78c41 0 67 -22 67 -59c0 -31 -19 -51 -46 -57l53 -76h-38
zM287 479c0 16 -12 29 -32 29h-46v-58h46c20 0 32 13 32 29z" />
    <glyph glyph-name="minus" unicode="&#x2212;" horiz-adv-x="514" 
d="M79 273l7 43h372l-7 -43h-372z" />
    <glyph glyph-name="eth" unicode="&#xf0;" horiz-adv-x="471" 
d="M185 502l-12 33l97 32c-24 27 -53 53 -86 79v4h58c27 -20 51 -43 73 -69l84 28l11 -33l-71 -24c59 -80 94 -179 94 -280c0 -168 -98 -281 -222 -281c-108 0 -173 76 -173 190c0 159 98 272 220 272c42 0 88 -15 110 -52h2c-13 39 -37 87 -76 137zM211 35
c97 0 172 91 172 228c0 88 -47 146 -123 146c-97 0 -172 -91 -172 -228c0 -88 47 -146 123 -146z" />
    <glyph glyph-name="multiply" unicode="&#xd7;" horiz-adv-x="442" 
d="M206 293l-101 122l32 27l99 -122l143 123l24 -29l-142 -123l99 -121l-32 -28l-99 121l-142 -121l-25 29z" />
    <glyph glyph-name="copyright" unicode="&#xa9;" horiz-adv-x="708" 
d="M688 307c0 -183 -142 -316 -315 -316c-174 0 -316 133 -316 316s142 316 316 316c173 0 315 -133 315 -316zM656 307c0 165 -127 284 -283 284s-284 -119 -284 -284s128 -284 284 -284s283 119 283 284zM202 309c0 121 76 199 175 199c81 0 135 -48 151 -118h-50
c-15 46 -50 73 -101 73c-74 0 -126 -61 -126 -154s52 -154 126 -154c51 0 86 27 101 73h50c-16 -70 -70 -118 -151 -118c-99 0 -175 78 -175 199z" />
    <glyph glyph-name="Aacute" unicode="&#xc1;" horiz-adv-x="579" 
d="M350 614h48l124 -614h-50l-41 203h-270l-119 -203h-54zM363 548l-176 -300h235zM406 665h-53l103 117h59z" />
    <glyph glyph-name="Acircumflex" unicode="&#xc2;" horiz-adv-x="579" 
d="M350 614h48l124 -614h-50l-41 203h-270l-119 -203h-54zM363 548l-176 -300h235zM423 786l71 -119h-44l-53 84l-81 -84h-50l113 119h44z" />
    <glyph glyph-name="Adieresis" unicode="&#xc4;" horiz-adv-x="579" 
d="M350 614h48l124 -614h-50l-41 203h-270l-119 -203h-54zM363 548l-176 -300h235zM296 715c0 19 14 33 33 33c18 0 32 -14 32 -33c0 -18 -14 -33 -32 -33c-19 0 -33 15 -33 33zM421 715c0 19 14 33 32 33s33 -14 33 -33c0 -18 -15 -33 -33 -33s-32 15 -32 33z" />
    <glyph glyph-name="Agrave" unicode="&#xc0;" horiz-adv-x="579" 
d="M350 614h48l124 -614h-50l-41 203h-270l-119 -203h-54zM363 548l-176 -300h235zM407 665h-47l-67 117h52z" />
    <glyph glyph-name="Aring" unicode="&#xc5;" horiz-adv-x="579" 
d="M350 614h48l124 -614h-50l-41 203h-270l-119 -203h-54zM363 548l-176 -300h235zM388 648c-44 0 -78 33 -78 76c0 46 36 85 85 85c44 0 78 -33 78 -77c0 -45 -37 -84 -85 -84zM389 679c27 0 52 21 52 51c0 27 -21 48 -48 48c-26 0 -51 -22 -51 -52c0 -26 21 -47 47 -47z
" />
    <glyph glyph-name="Atilde" unicode="&#xc3;" horiz-adv-x="579" 
d="M350 614h48l124 -614h-50l-41 203h-270l-119 -203h-54zM363 548l-176 -300h235zM489 770h36c-12 -64 -42 -105 -86 -105c-48 0 -62 65 -96 65c-24 0 -41 -24 -48 -62h-36c11 63 42 105 86 105c49 0 61 -65 96 -65c24 0 41 24 48 62z" />
    <glyph glyph-name="Ccedilla" unicode="&#xc7;" horiz-adv-x="576" 
d="M52 260c0 190 122 363 307 363c116 0 196 -70 210 -176h-49c-17 78 -76 128 -161 128c-150 0 -255 -141 -255 -315c0 -132 75 -221 187 -221c93 0 156 48 191 128h51c-37 -107 -125 -176 -242 -176c-141 0 -239 107 -239 269zM204 -175h-49l82 127h50z" />
    <glyph glyph-name="Eacute" unicode="&#xc9;" horiz-adv-x="515" 
d="M380 665h-53l103 117h59zM153 614h380l-8 -47h-331l-40 -228h300l-8 -46h-300l-43 -246h330l-8 -47h-380z" />
    <glyph glyph-name="Ecircumflex" unicode="&#xca;" horiz-adv-x="515" 
d="M153 614h380l-8 -47h-331l-40 -228h300l-8 -46h-300l-43 -246h330l-8 -47h-380zM398 786l71 -119h-44l-53 84l-81 -84h-50l113 119h44z" />
    <glyph glyph-name="Edieresis" unicode="&#xcb;" horiz-adv-x="515" 
d="M271 715c0 19 14 33 33 33c18 0 32 -14 32 -33c0 -18 -14 -33 -32 -33c-19 0 -33 15 -33 33zM396 715c0 19 14 33 32 33s33 -14 33 -33c0 -18 -15 -33 -33 -33s-32 15 -32 33zM153 614h380l-8 -47h-331l-40 -228h300l-8 -46h-300l-43 -246h330l-8 -47h-380z" />
    <glyph glyph-name="Egrave" unicode="&#xc8;" horiz-adv-x="515" 
d="M382 665h-47l-67 117h52zM153 614h380l-8 -47h-331l-40 -228h300l-8 -46h-300l-43 -246h330l-8 -47h-380z" />
    <glyph glyph-name="Iacute" unicode="&#xcd;" horiz-adv-x="209" 
d="M204 614l-108 -614h-51l108 614h51zM210 665h-53l103 117h59z" />
    <glyph glyph-name="Icircumflex" unicode="&#xce;" horiz-adv-x="209" 
d="M204 614l-108 -614h-51l108 614h51zM228 786l71 -119h-44l-53 84l-81 -84h-50l113 119h44z" />
    <glyph glyph-name="Idieresis" unicode="&#xcf;" horiz-adv-x="209" 
d="M204 614l-108 -614h-51l108 614h51zM101 715c0 19 14 33 33 33c18 0 32 -14 32 -33c0 -18 -14 -33 -32 -33c-19 0 -33 15 -33 33zM226 715c0 19 14 33 32 33s33 -14 33 -33c0 -18 -15 -33 -33 -33s-32 15 -32 33z" />
    <glyph glyph-name="Igrave" unicode="&#xcc;" horiz-adv-x="209" 
d="M204 614l-108 -614h-51l108 614h51zM211 665h-47l-67 117h52z" />
    <glyph glyph-name="Ntilde" unicode="&#xd1;" horiz-adv-x="616" 
d="M498 770h36c-12 -64 -42 -105 -86 -105c-48 0 -62 65 -96 65c-24 0 -41 -24 -48 -62h-36c11 63 42 105 86 105c49 0 61 -65 96 -65c24 0 41 24 48 62zM611 614l-108 -614h-34l-281 540l-94 -540h-49l108 614h48l269 -519l92 519h49z" />
    <glyph glyph-name="Oacute" unicode="&#xd3;" horiz-adv-x="620" 
d="M410 665h-53l103 117h59zM290 39c158 0 257 151 257 314c0 127 -72 222 -187 222c-157 0 -256 -151 -256 -314c0 -127 71 -222 186 -222zM290 -9c-139 0 -238 108 -238 270c0 182 120 362 308 362c139 0 239 -108 239 -270c0 -182 -120 -362 -309 -362z" />
    <glyph glyph-name="Ocircumflex" unicode="&#xd4;" horiz-adv-x="620" 
d="M290 39c158 0 257 151 257 314c0 127 -72 222 -187 222c-157 0 -256 -151 -256 -314c0 -127 71 -222 186 -222zM290 -9c-139 0 -238 108 -238 270c0 182 120 362 308 362c139 0 239 -108 239 -270c0 -182 -120 -362 -309 -362zM428 786l71 -119h-44l-53 84l-81 -84h-50
l113 119h44z" />
    <glyph glyph-name="Odieresis" unicode="&#xd6;" horiz-adv-x="620" 
d="M301 715c0 19 14 33 33 33c18 0 32 -14 32 -33c0 -18 -14 -33 -32 -33c-19 0 -33 15 -33 33zM426 715c0 19 14 33 32 33s33 -14 33 -33c0 -18 -15 -33 -33 -33s-32 15 -32 33zM290 39c158 0 257 151 257 314c0 127 -72 222 -187 222c-157 0 -256 -151 -256 -314
c0 -127 71 -222 186 -222zM290 -9c-139 0 -238 108 -238 270c0 182 120 362 308 362c139 0 239 -108 239 -270c0 -182 -120 -362 -309 -362z" />
    <glyph glyph-name="Ograve" unicode="&#xd2;" horiz-adv-x="620" 
d="M412 665h-47l-67 117h52zM290 39c158 0 257 151 257 314c0 127 -72 222 -187 222c-157 0 -256 -151 -256 -314c0 -127 71 -222 186 -222zM290 -9c-139 0 -238 108 -238 270c0 182 120 362 308 362c139 0 239 -108 239 -270c0 -182 -120 -362 -309 -362z" />
    <glyph glyph-name="Otilde" unicode="&#xd5;" horiz-adv-x="620" 
d="M494 770h36c-12 -64 -42 -105 -86 -105c-48 0 -62 65 -96 65c-24 0 -41 -24 -48 -62h-36c11 63 42 105 86 105c49 0 61 -65 96 -65c24 0 41 24 48 62zM290 39c158 0 257 151 257 314c0 127 -72 222 -187 222c-157 0 -256 -151 -256 -314c0 -127 71 -222 186 -222zM290 -9
c-139 0 -238 108 -238 270c0 182 120 362 308 362c139 0 239 -108 239 -270c0 -182 -120 -362 -309 -362z" />
    <glyph glyph-name="Scaron" unicode="&#x160;" horiz-adv-x="499" 
d="M296 660l-71 119h44l53 -83l81 83h50l-113 -119h-44zM494 460h-50c-10 69 -64 117 -155 117c-85 0 -158 -46 -158 -132c0 -50 35 -74 95 -93l104 -33c80 -26 118 -67 118 -136c0 -120 -99 -192 -216 -192c-116 0 -205 60 -215 168h51c11 -83 80 -122 164 -122
c94 0 167 51 167 143c0 41 -25 74 -89 94l-110 35c-73 22 -118 60 -118 133c0 110 92 181 207 181c124 0 195 -69 205 -163z" />
    <glyph glyph-name="Uacute" unicode="&#xda;" horiz-adv-x="605" 
d="M402 665h-53l103 117h59zM279 -9c-121 0 -211 68 -211 197c0 17 2 35 5 58l65 368h51l-64 -365c-3 -19 -5 -37 -5 -54c0 -106 67 -157 159 -157c111 0 189 67 214 211l64 365h51l-65 -372c-30 -168 -129 -251 -264 -251z" />
    <glyph glyph-name="Ucircumflex" unicode="&#xdb;" horiz-adv-x="605" 
d="M279 -9c-121 0 -211 68 -211 197c0 17 2 35 5 58l65 368h51l-64 -365c-3 -19 -5 -37 -5 -54c0 -106 67 -157 159 -157c111 0 189 67 214 211l64 365h51l-65 -372c-30 -168 -129 -251 -264 -251zM420 786l71 -119h-44l-53 84l-81 -84h-50l113 119h44z" />
    <glyph glyph-name="Udieresis" unicode="&#xdc;" horiz-adv-x="605" 
d="M293 715c0 19 14 33 33 33c18 0 32 -14 32 -33c0 -18 -14 -33 -32 -33c-19 0 -33 15 -33 33zM418 715c0 19 14 33 32 33s33 -14 33 -33c0 -18 -15 -33 -33 -33s-32 15 -32 33zM279 -9c-121 0 -211 68 -211 197c0 17 2 35 5 58l65 368h51l-64 -365c-3 -19 -5 -37 -5 -54
c0 -106 67 -157 159 -157c111 0 189 67 214 211l64 365h51l-65 -372c-30 -168 -129 -251 -264 -251z" />
    <glyph glyph-name="Ugrave" unicode="&#xd9;" horiz-adv-x="605" 
d="M404 665h-47l-67 117h52zM279 -9c-121 0 -211 68 -211 197c0 17 2 35 5 58l65 368h51l-64 -365c-3 -19 -5 -37 -5 -54c0 -106 67 -157 159 -157c111 0 189 67 214 211l64 365h51l-65 -372c-30 -168 -129 -251 -264 -251z" />
    <glyph glyph-name="Yacute" unicode="&#xdd;" horiz-adv-x="535" 
d="M286 309l247 305h57l-285 -352l-46 -262h-51l46 262l-162 352h54zM374 665h-53l103 117h59z" />
    <glyph glyph-name="Ydieresis" unicode="&#x178;" horiz-adv-x="535" 
d="M286 309l247 305h57l-285 -352l-46 -262h-51l46 262l-162 352h54zM265 715c0 19 14 33 33 33c18 0 32 -14 32 -33c0 -18 -14 -33 -32 -33c-19 0 -33 15 -33 33zM390 715c0 19 14 33 32 33s33 -14 33 -33c0 -18 -15 -33 -33 -33s-32 15 -32 33z" />
    <glyph glyph-name="Zcaron" unicode="&#x17d;" horiz-adv-x="519" 
d="M318 660l-71 119h44l53 -83l81 83h50l-113 -119h-44zM456 47l-8 -47h-443l6 39l466 528h-367l9 47h433l-7 -39l-465 -528h376z" />
    <glyph glyph-name="aacute" unicode="&#xe1;" horiz-adv-x="441" 
d="M388 300l-52 -300h-48l7 42c-26 -26 -75 -49 -126 -49c-84 0 -147 51 -147 125c0 91 86 148 179 148c60 0 106 -28 124 -51l15 82c1 9 2 21 2 28c0 49 -31 84 -91 84c-57 0 -97 -24 -124 -76h-49c30 75 97 120 176 120c88 0 137 -50 137 -125c0 -8 -1 -18 -3 -28z
M305 101l11 57c-10 36 -56 66 -115 66c-61 0 -131 -33 -131 -105c0 -52 49 -84 106 -84s109 28 129 66zM303 520h-50l106 130h53z" />
    <glyph glyph-name="acircumflex" unicode="&#xe2;" horiz-adv-x="441" 
d="M319 644l69 -131h-43l-51 97l-86 -97h-48l115 131h44zM388 300l-52 -300h-48l7 42c-26 -26 -75 -49 -126 -49c-84 0 -147 51 -147 125c0 91 86 148 179 148c60 0 106 -28 124 -51l15 82c1 9 2 21 2 28c0 49 -31 84 -91 84c-57 0 -97 -24 -124 -76h-49
c30 75 97 120 176 120c88 0 137 -50 137 -125c0 -8 -1 -18 -3 -28zM305 101l11 57c-10 36 -56 66 -115 66c-61 0 -131 -33 -131 -105c0 -52 49 -84 106 -84s109 28 129 66z" />
    <glyph glyph-name="adieresis" unicode="&#xe4;" horiz-adv-x="441" 
d="M195 571c0 18 14 32 33 32c18 0 32 -14 32 -32c0 -19 -14 -33 -32 -33c-19 0 -33 14 -33 33zM320 571c0 18 14 32 32 32s33 -14 33 -32c0 -19 -15 -33 -33 -33s-32 14 -32 33zM388 300l-52 -300h-48l7 42c-26 -26 -75 -49 -126 -49c-84 0 -147 51 -147 125
c0 91 86 148 179 148c60 0 106 -28 124 -51l15 82c1 9 2 21 2 28c0 49 -31 84 -91 84c-57 0 -97 -24 -124 -76h-49c30 75 97 120 176 120c88 0 137 -50 137 -125c0 -8 -1 -18 -3 -28zM305 101l11 57c-10 36 -56 66 -115 66c-61 0 -131 -33 -131 -105c0 -52 49 -84 106 -84
s109 28 129 66z" />
    <glyph glyph-name="agrave" unicode="&#xe0;" horiz-adv-x="441" 
d="M388 300l-52 -300h-48l7 42c-26 -26 -75 -49 -126 -49c-84 0 -147 51 -147 125c0 91 86 148 179 148c60 0 106 -28 124 -51l15 82c1 9 2 21 2 28c0 49 -31 84 -91 84c-57 0 -97 -24 -124 -76h-49c30 75 97 120 176 120c88 0 137 -50 137 -125c0 -8 -1 -18 -3 -28z
M305 101l11 57c-10 36 -56 66 -115 66c-61 0 -131 -33 -131 -105c0 -52 49 -84 106 -84s109 28 129 66zM304 520h-44l-64 130h48z" />
    <glyph glyph-name="aring" unicode="&#xe5;" horiz-adv-x="441" 
d="M388 300l-52 -300h-48l7 42c-26 -26 -75 -49 -126 -49c-84 0 -147 51 -147 125c0 91 86 148 179 148c60 0 106 -28 124 -51l15 82c1 9 2 21 2 28c0 49 -31 84 -91 84c-57 0 -97 -24 -124 -76h-49c30 75 97 120 176 120c88 0 137 -50 137 -125c0 -8 -1 -18 -3 -28z
M305 101l11 57c-10 36 -56 66 -115 66c-61 0 -131 -33 -131 -105c0 -52 49 -84 106 -84s109 28 129 66zM290 531c27 0 51 21 51 51c0 27 -21 47 -47 47c-27 0 -51 -21 -51 -51c0 -27 21 -47 47 -47zM289 499c-45 0 -78 34 -78 77c0 45 36 85 84 85c45 0 78 -34 78 -77
c0 -45 -36 -85 -84 -85z" />
    <glyph glyph-name="atilde" unicode="&#xe3;" horiz-adv-x="441" 
d="M388 300l-52 -300h-48l7 42c-26 -26 -75 -49 -126 -49c-84 0 -147 51 -147 125c0 91 86 148 179 148c60 0 106 -28 124 -51l15 82c1 9 2 21 2 28c0 49 -31 84 -91 84c-57 0 -97 -24 -124 -76h-49c30 75 97 120 176 120c88 0 137 -50 137 -125c0 -8 -1 -18 -3 -28z
M305 101l11 57c-10 36 -56 66 -115 66c-61 0 -131 -33 -131 -105c0 -52 49 -84 106 -84s109 28 129 66zM384 625h36c-12 -63 -42 -105 -86 -105c-48 0 -62 65 -96 65c-24 0 -41 -24 -48 -62h-36c11 63 42 105 86 105c49 0 61 -65 96 -65c24 0 41 25 48 62z" />
    <glyph glyph-name="ccedilla" unicode="&#xe7;" horiz-adv-x="442" 
d="M341 129h50c-27 -83 -92 -138 -183 -138c-107 0 -170 78 -170 192c0 139 83 270 225 270c94 0 147 -56 154 -138h-50c-6 57 -44 93 -104 93c-108 0 -175 -102 -175 -225c0 -90 47 -147 123 -147c64 0 109 36 130 93zM131 -175h-49l82 127h50z" />
    <glyph glyph-name="eacute" unicode="&#xe9;" horiz-adv-x="454" 
d="M349 129h50c-27 -82 -97 -138 -188 -138c-108 0 -173 75 -173 193c0 129 78 269 226 269c106 0 158 -71 158 -175c0 -16 -2 -34 -6 -60h-326c-1 -12 -2 -23 -2 -34c0 -95 48 -149 125 -149c63 0 115 35 136 94zM263 409c-90 0 -146 -69 -167 -152h276c1 9 2 17 2 25
c0 68 -32 127 -111 127zM310 520h-50l106 130h53z" />
    <glyph glyph-name="ecircumflex" unicode="&#xea;" horiz-adv-x="454" 
d="M349 129h50c-27 -82 -97 -138 -188 -138c-108 0 -173 75 -173 193c0 129 78 269 226 269c106 0 158 -71 158 -175c0 -16 -2 -34 -6 -60h-326c-1 -12 -2 -23 -2 -34c0 -95 48 -149 125 -149c63 0 115 35 136 94zM263 409c-90 0 -146 -69 -167 -152h276c1 9 2 17 2 25
c0 68 -32 127 -111 127zM329 644l69 -131h-43l-51 97l-86 -97h-48l115 131h44z" />
    <glyph glyph-name="edieresis" unicode="&#xeb;" horiz-adv-x="454" 
d="M349 129h50c-27 -82 -97 -138 -188 -138c-108 0 -173 75 -173 193c0 129 78 269 226 269c106 0 158 -71 158 -175c0 -16 -2 -34 -6 -60h-326c-1 -12 -2 -23 -2 -34c0 -95 48 -149 125 -149c63 0 115 35 136 94zM263 409c-90 0 -146 -69 -167 -152h276c1 9 2 17 2 25
c0 68 -32 127 -111 127zM203 571c0 18 14 32 33 32c18 0 32 -14 32 -32c0 -19 -14 -33 -32 -33c-19 0 -33 14 -33 33zM328 571c0 18 14 32 32 32s33 -14 33 -32c0 -19 -15 -33 -33 -33s-32 14 -32 33z" />
    <glyph glyph-name="egrave" unicode="&#xe8;" horiz-adv-x="454" 
d="M349 129h50c-27 -82 -97 -138 -188 -138c-108 0 -173 75 -173 193c0 129 78 269 226 269c106 0 158 -71 158 -175c0 -16 -2 -34 -6 -60h-326c-1 -12 -2 -23 -2 -34c0 -95 48 -149 125 -149c63 0 115 35 136 94zM263 409c-90 0 -146 -69 -167 -152h276c1 9 2 17 2 25
c0 68 -32 127 -111 127zM312 520h-44l-64 130h48z" />
    <glyph glyph-name="iacute" unicode="&#xed;" horiz-adv-x="192" 
d="M171 520h-50l106 130h53zM160 444l-78 -444h-49l78 444h49z" />
    <glyph glyph-name="icircumflex" unicode="&#xee;" horiz-adv-x="192" 
d="M191 644l49 -131h-42l-34 94l-67 -94h-46l96 131h44zM160 444l-78 -444h-49l78 444h49z" />
    <glyph glyph-name="idieresis" unicode="&#xef;" horiz-adv-x="192" 
d="M71 571c0 18 15 32 33 32c19 0 33 -14 33 -32c0 -19 -14 -33 -33 -33c-18 0 -33 14 -33 33zM178 571c0 18 15 32 33 32s33 -14 33 -32c0 -19 -15 -33 -33 -33s-33 14 -33 33zM160 444l-78 -444h-49l78 444h49z" />
    <glyph glyph-name="igrave" unicode="&#xec;" horiz-adv-x="192" 
d="M160 444l-78 -444h-49l78 444h49zM172 520h-44l-64 130h48z" />
    <glyph glyph-name="ntilde" unicode="&#xf1;" horiz-adv-x="483" 
d="M33 0l78 444h49l-12 -72c34 43 90 81 155 81c84 0 130 -51 130 -125c0 -11 -1 -22 -3 -34l-51 -294h-49l49 287c2 11 3 21 3 31c0 53 -28 89 -91 89c-65 0 -124 -44 -154 -96l-55 -311h-49zM404 625h36c-12 -63 -42 -105 -86 -105c-48 0 -62 65 -96 65
c-24 0 -41 -24 -48 -62h-36c11 63 42 105 86 105c49 0 61 -65 96 -65c24 0 41 25 48 62z" />
    <glyph glyph-name="oacute" unicode="&#xf3;" horiz-adv-x="471" 
d="M309 520h-50l106 130h53zM211 35c97 0 172 91 172 228c0 88 -47 146 -123 146c-97 0 -172 -91 -172 -228c0 -88 47 -146 123 -146zM211 -9c-108 0 -173 76 -173 190c0 159 98 272 222 272c108 0 173 -76 173 -190c0 -159 -98 -272 -222 -272z" />
    <glyph glyph-name="ocircumflex" unicode="&#xf4;" horiz-adv-x="471" 
d="M327 644l69 -131h-43l-51 97l-86 -97h-48l115 131h44zM211 35c97 0 172 91 172 228c0 88 -47 146 -123 146c-97 0 -172 -91 -172 -228c0 -88 47 -146 123 -146zM211 -9c-108 0 -173 76 -173 190c0 159 98 272 222 272c108 0 173 -76 173 -190c0 -159 -98 -272 -222 -272z
" />
    <glyph glyph-name="odieresis" unicode="&#xf6;" horiz-adv-x="471" 
d="M201 571c0 18 14 32 33 32c18 0 32 -14 32 -32c0 -19 -14 -33 -32 -33c-19 0 -33 14 -33 33zM326 571c0 18 14 32 32 32s33 -14 33 -32c0 -19 -15 -33 -33 -33s-32 14 -32 33zM211 35c97 0 172 91 172 228c0 88 -47 146 -123 146c-97 0 -172 -91 -172 -228
c0 -88 47 -146 123 -146zM211 -9c-108 0 -173 76 -173 190c0 159 98 272 222 272c108 0 173 -76 173 -190c0 -159 -98 -272 -222 -272z" />
    <glyph glyph-name="ograve" unicode="&#xf2;" horiz-adv-x="471" 
d="M211 35c97 0 172 91 172 228c0 88 -47 146 -123 146c-97 0 -172 -91 -172 -228c0 -88 47 -146 123 -146zM211 -9c-108 0 -173 76 -173 190c0 159 98 272 222 272c108 0 173 -76 173 -190c0 -159 -98 -272 -222 -272zM310 520h-44l-64 130h48z" />
    <glyph glyph-name="otilde" unicode="&#xf5;" horiz-adv-x="471" 
d="M211 35c97 0 172 91 172 228c0 88 -47 146 -123 146c-97 0 -172 -91 -172 -228c0 -88 47 -146 123 -146zM211 -9c-108 0 -173 76 -173 190c0 159 98 272 222 272c108 0 173 -76 173 -190c0 -159 -98 -272 -222 -272zM394 625h36c-12 -63 -42 -105 -86 -105
c-48 0 -62 65 -96 65c-24 0 -41 -24 -48 -62h-36c11 63 42 105 86 105c49 0 61 -65 96 -65c24 0 41 25 48 62z" />
    <glyph glyph-name="scaron" unicode="&#x161;" horiz-adv-x="398" 
d="M230 515l-69 130h43l51 -96l86 96h48l-115 -130h-44zM14 116h49c9 -54 54 -82 118 -82c57 0 114 25 114 90c0 32 -22 54 -69 71l-75 25c-54 18 -89 43 -89 101c0 83 75 132 157 132c96 0 148 -50 156 -122h-48c-10 49 -43 79 -108 79c-56 0 -109 -29 -109 -86
c0 -35 25 -49 68 -64l71 -24c65 -21 94 -56 94 -108c0 -87 -74 -137 -162 -137c-95 0 -161 48 -167 125z" />
    <glyph glyph-name="uacute" unicode="&#xfa;" horiz-adv-x="481" 
d="M309 520h-50l106 130h53zM447 444l-78 -444h-49l12 71c-34 -42 -90 -80 -155 -80c-83 0 -128 50 -128 124c0 11 1 23 3 35l51 294h50l-51 -288c-2 -11 -3 -23 -3 -33c0 -52 27 -87 89 -87c66 0 125 45 155 97l55 311h49z" />
    <glyph glyph-name="ucircumflex" unicode="&#xfb;" horiz-adv-x="481" 
d="M328 644l69 -131h-43l-51 97l-86 -97h-48l115 131h44zM447 444l-78 -444h-49l12 71c-34 -42 -90 -80 -155 -80c-83 0 -128 50 -128 124c0 11 1 23 3 35l51 294h50l-51 -288c-2 -11 -3 -23 -3 -33c0 -52 27 -87 89 -87c66 0 125 45 155 97l55 311h49z" />
    <glyph glyph-name="udieresis" unicode="&#xfc;" horiz-adv-x="481" 
d="M202 571c0 18 14 32 33 32c18 0 32 -14 32 -32c0 -19 -14 -33 -32 -33c-19 0 -33 14 -33 33zM327 571c0 18 14 32 32 32s33 -14 33 -32c0 -19 -15 -33 -33 -33s-32 14 -32 33zM447 444l-78 -444h-49l12 71c-34 -42 -90 -80 -155 -80c-83 0 -128 50 -128 124
c0 11 1 23 3 35l51 294h50l-51 -288c-2 -11 -3 -23 -3 -33c0 -52 27 -87 89 -87c66 0 125 45 155 97l55 311h49z" />
    <glyph glyph-name="ugrave" unicode="&#xf9;" horiz-adv-x="481" 
d="M447 444l-78 -444h-49l12 71c-34 -42 -90 -80 -155 -80c-83 0 -128 50 -128 124c0 11 1 23 3 35l51 294h50l-51 -288c-2 -11 -3 -23 -3 -33c0 -52 27 -87 89 -87c66 0 125 45 155 97l55 311h49zM311 520h-44l-64 130h48z" />
    <glyph glyph-name="yacute" unicode="&#xfd;" horiz-adv-x="432" 
d="M84 -170h-51l108 180l-84 434h50l70 -375l223 375h54zM283 520h-50l106 130h53z" />
    <glyph glyph-name="ydieresis" unicode="&#xff;" horiz-adv-x="432" 
d="M84 -170h-51l108 180l-84 434h50l70 -375l223 375h54zM176 571c0 18 14 32 33 32c18 0 32 -14 32 -32c0 -19 -14 -33 -32 -33c-19 0 -33 14 -33 33zM301 571c0 18 14 32 32 32s33 -14 33 -32c0 -19 -15 -33 -33 -33s-32 14 -32 33z" />
    <glyph glyph-name="zcaron" unicode="&#x17e;" horiz-adv-x="415" 
d="M253 515l-69 130h43l51 -96l86 96h48l-115 -130h-44zM347 43l-7 -43h-336l6 35l335 366h-266l8 43h329l-6 -35l-336 -366h273z" />
    <glyph glyph-name="Euro" unicode="&#x20ac;" horiz-adv-x="518" 
d="M47 343l7 41h54c39 132 129 239 258 239c101 0 163 -68 172 -167h-46c-11 73 -55 121 -127 121c-103 0 -174 -84 -207 -193h229l-15 -41h-225c-5 -25 -8 -51 -9 -77h208l-17 -41h-192c3 -117 58 -188 147 -188c76 0 126 46 156 121h49c-37 -103 -112 -167 -208 -167
c-112 0 -191 89 -194 234h-61l7 41h55c1 26 5 51 10 77h-51z" />
    <glyph glyph-name="approxequal" unicode="&#x2248;" horiz-adv-x="521" 
d="M88 304l8 47c41 33 77 44 107 44c65 0 101 -47 162 -47c31 0 69 14 111 48l-8 -47c-42 -34 -80 -44 -110 -44c-64 0 -100 47 -162 47c-31 0 -67 -15 -108 -48zM68 195l8 47c42 33 78 44 108 44c65 0 101 -48 162 -48c31 0 68 14 111 49l-8 -47c-43 -34 -80 -44 -111 -44
c-64 0 -99 47 -162 47c-30 0 -66 -15 -108 -48z" />
    <glyph glyph-name="notequal" unicode="&#x2260;" horiz-adv-x="521" 
d="M94 338l7 41h229l85 89h45l-85 -89h98l-7 -41h-130l-82 -86h197l-7 -41h-229l-85 -90h-45l85 90h-99l8 41h130l82 86h-197z" />
    <glyph glyph-name="lessequal" unicode="&#x2264;" horiz-adv-x="399" 
d="M72 308l7 46l296 115l-9 -48l-240 -92l208 -93l-8 -43zM37 111l8 43h275l-8 -43h-275z" />
    <glyph glyph-name="greaterequal" unicode="&#x2265;" horiz-adv-x="399" 
d="M328 154l-7 -43h-275l7 43h275zM363 354l-8 -45l-295 -116l9 49l240 91l-209 93l9 43z" />
    <glyph glyph-name="threesuperior" unicode="&#xb3;" horiz-adv-x="290" 
d="M154 436l6 35h22c37 0 72 22 72 64c0 27 -19 46 -52 46c-35 0 -61 -23 -73 -57h-44c16 56 62 96 121 96c58 0 90 -34 90 -81c0 -43 -32 -78 -67 -87c28 -8 47 -32 47 -66c0 -58 -49 -106 -116 -106c-65 0 -105 36 -105 92c0 3 1 7 1 7h44v-2c0 -38 21 -59 60 -59
c42 0 74 28 74 68c0 32 -23 50 -57 50h-23z" />
    <glyph glyph-name="Tcedilla" unicode="&#x162;" horiz-adv-x="562" 
d="M170 -183l48 67c-15 3 -26 15 -26 33c0 21 16 36 36 36s36 -15 36 -37c0 -16 -8 -29 -17 -41l-41 -58h-36zM92 567l8 47h501l-9 -47h-225l-99 -567h-51l99 567h-224z" />
    <glyph glyph-name="tcedilla" unicode="&#x163;" horiz-adv-x="297" 
d="M65 -183l48 67c-15 3 -26 15 -26 33c0 21 16 36 36 36s36 -15 36 -37c0 -16 -8 -29 -17 -41l-41 -58h-36zM70 107l54 294h-75l7 43h77l20 114h49l-20 -114h112l-7 -43h-114l-52 -288c-1 -10 -3 -21 -3 -29c0 -34 19 -48 53 -48c22 0 45 7 64 17l-8 -47
c-19 -9 -45 -15 -68 -15c-57 0 -92 28 -92 83c0 8 1 18 3 33z" />
    <glyph glyph-name="i.dot" horiz-adv-x="192" 
d="M160 444l-78 -444h-49l78 444h49zM194 579c0 -19 -15 -34 -34 -34s-34 15 -34 34c0 18 15 34 34 34s34 -16 34 -34z" />
    <glyph glyph-name="uni0237" unicode="&#x237;" horiz-adv-x="192" 
d="M-86 -173l8 45c6 -4 15 -7 26 -7c39 0 63 17 74 76l89 503h49l-89 -508c-14 -76 -56 -115 -123 -115c-17 0 -27 3 -34 6z" />
    <glyph glyph-name="space_uni0326" 
d="M208 -183l48 67c-15 3 -26 15 -26 33c0 21 16 36 36 36s36 -15 36 -37c0 -16 -8 -29 -17 -41l-41 -58h-36z" />
    <glyph glyph-name="space_uni0326.alt" 
d="M302 663l-49 -69c15 -3 26 -15 26 -33c0 -20 -16 -36 -36 -36s-36 15 -36 37c0 16 8 29 17 42l42 59h36z" />
    <glyph glyph-name="space_dotbelowcomb" 
d="M284 -112c0 -18 -15 -34 -34 -34s-34 16 -34 34c0 19 15 35 34 35s34 -16 34 -35z" />
    <glyph glyph-name="uni2117" unicode="&#x2117;" horiz-adv-x="708" 
d="M688 307c0 -183 -142 -316 -315 -316c-174 0 -316 133 -316 316s142 316 316 316c173 0 315 -133 315 -316zM656 307c0 165 -127 284 -283 284s-284 -119 -284 -284s128 -284 284 -284s283 119 283 284zM407 270h-95v-146h-46v369h141c75 0 121 -38 121 -111
s-46 -112 -121 -112zM483 382c0 42 -27 69 -78 69h-93v-138h93c51 0 78 26 78 69z" />
    <glyph glyph-name=".null" horiz-adv-x="0" 
 />
    <glyph glyph-name="Abreve" unicode="&#x102;" horiz-adv-x="579" 
d="M350 614h48l124 -614h-50l-41 203h-270l-119 -203h-54zM363 548l-176 -300h235zM385 664c-55 0 -99 41 -85 117h40c-10 -51 12 -79 49 -79c36 0 67 28 77 79h39c-14 -76 -59 -117 -120 -117z" />
    <glyph glyph-name="Amacron" unicode="&#x100;" horiz-adv-x="579" 
d="M350 614h48l124 -614h-50l-41 203h-270l-119 -203h-54zM363 548l-176 -300h235zM279 670l7 42h202l-7 -42h-202z" />
    <glyph glyph-name="Aogonek" unicode="&#x104;" horiz-adv-x="579" 
d="M350 614h48l124 -614c-51 -72 -71 -97 -71 -126c0 -13 8 -19 19 -19c14 0 25 5 40 14l-6 -36c-15 -9 -28 -15 -46 -15c-29 0 -48 16 -48 48c0 41 30 76 72 134h-10l-40 203h-271l-119 -203h-54zM363 548l-176 -300h236z" />
    <glyph glyph-name="Aringacute" unicode="&#x1fa;" horiz-adv-x="579" 
d="M350 614h48l124 -614h-50l-41 203h-270l-119 -203h-54zM363 548l-176 -300h235zM387 640c-44 0 -78 29 -78 67c0 39 37 74 85 74c44 0 78 -29 78 -67c0 -39 -36 -74 -85 -74zM389 670c26 0 51 16 51 43c0 22 -21 38 -48 38c-26 0 -51 -16 -51 -42c0 -23 21 -39 48 -39z
M437 809h-51l74 84h55z" />
    <glyph glyph-name="AEacute" unicode="&#x1fc;" horiz-adv-x="867" 
d="M481 614h404l-9 -47h-320l-40 -228h289l-8 -46h-289l-43 -246h320l-8 -47h-371l36 203h-234l-163 -203h-57zM507 573l-262 -325h205zM705 665h-53l103 117h59z" />
    <glyph glyph-name="Cacute" unicode="&#x106;" horiz-adv-x="576" 
d="M52 260c0 190 122 363 307 363c116 0 196 -70 210 -176h-49c-17 78 -76 128 -161 128c-150 0 -255 -141 -255 -315c0 -132 75 -221 187 -221c93 0 156 48 191 128h51c-37 -107 -125 -176 -242 -176c-141 0 -239 107 -239 269zM400 665h-53l103 117h59z" />
    <glyph glyph-name="Ccaron" unicode="&#x10c;" horiz-adv-x="576" 
d="M362 660l-71 119h44l53 -83l81 83h50l-113 -119h-44zM52 260c0 190 122 363 307 363c116 0 196 -70 210 -176h-49c-17 78 -76 128 -161 128c-150 0 -255 -141 -255 -315c0 -132 75 -221 187 -221c93 0 156 48 191 128h51c-37 -107 -125 -176 -242 -176
c-141 0 -239 107 -239 269z" />
    <glyph glyph-name="Ccircumflex" unicode="&#x108;" horiz-adv-x="576" 
d="M52 260c0 190 122 363 307 363c116 0 196 -70 210 -176h-49c-17 78 -76 128 -161 128c-150 0 -255 -141 -255 -315c0 -132 75 -221 187 -221c93 0 156 48 191 128h51c-37 -107 -125 -176 -242 -176c-141 0 -239 107 -239 269zM425 786l71 -119h-44l-53 84l-81 -84h-50
l113 119h44z" />
    <glyph glyph-name="Cdotaccent" unicode="&#x10a;" horiz-adv-x="576" 
d="M427 714c0 -19 -15 -34 -34 -34s-34 15 -34 34s15 34 34 34s34 -15 34 -34zM52 260c0 190 122 363 307 363c116 0 196 -70 210 -176h-49c-17 78 -76 128 -161 128c-150 0 -255 -141 -255 -315c0 -132 75 -221 187 -221c93 0 156 48 191 128h51
c-37 -107 -125 -176 -242 -176c-141 0 -239 107 -239 269z" />
    <glyph glyph-name="Dcaron" unicode="&#x10e;" horiz-adv-x="606" 
d="M336 660l-71 119h44l53 -83l81 83h50l-113 -119h-44zM104 47h134c169 0 294 129 294 312c0 128 -72 208 -205 208h-132zM45 0l108 614h180c161 0 251 -100 251 -255c0 -211 -154 -359 -354 -359h-185z" />
    <glyph glyph-name="Dcroat" unicode="&#x110;" horiz-adv-x="618" 
d="M50 295l8 45h60l48 274h180c161 0 251 -100 251 -255c0 -211 -154 -359 -354 -359h-185l52 295h-60zM117 47h134c169 0 294 129 294 312c0 128 -72 208 -205 208h-132l-40 -227h129l-7 -45h-130z" />
    <glyph glyph-name="Ebreve" unicode="&#x114;" horiz-adv-x="515" 
d="M361 664c-55 0 -99 41 -85 117h40c-10 -51 12 -79 49 -79c36 0 67 28 77 79h39c-14 -76 -59 -117 -120 -117zM153 614h380l-8 -47h-331l-40 -228h300l-8 -46h-300l-43 -246h330l-8 -47h-380z" />
    <glyph glyph-name="Ecaron" unicode="&#x11a;" horiz-adv-x="515" 
d="M336 660l-71 119h44l53 -83l81 83h50l-113 -119h-44zM153 614h380l-8 -47h-331l-40 -228h300l-8 -46h-300l-43 -246h330l-8 -47h-380z" />
    <glyph glyph-name="Edotaccent" unicode="&#x116;" horiz-adv-x="515" 
d="M400 714c0 -19 -15 -34 -34 -34s-34 15 -34 34s15 34 34 34s34 -15 34 -34zM153 614h380l-8 -47h-331l-40 -228h300l-8 -46h-300l-43 -246h330l-8 -47h-380z" />
    <glyph glyph-name="Emacron" unicode="&#x112;" horiz-adv-x="515" 
d="M258 670l7 42h202l-7 -42h-202zM153 614h380l-8 -47h-331l-40 -228h300l-8 -46h-300l-43 -246h330l-8 -47h-380z" />
    <glyph glyph-name="Eogonek" unicode="&#x118;" horiz-adv-x="515" 
d="M153 614h380l-8 -47h-331l-40 -228h300l-8 -46h-300l-43 -246h330l-8 -47h-38c-51 -72 -70 -97 -70 -126c0 -13 7 -19 19 -19c14 0 25 5 40 14l-7 -36c-14 -9 -28 -15 -45 -15c-29 0 -49 16 -49 48c0 41 31 77 72 134h-302z" />
    <glyph glyph-name="Gbreve" unicode="&#x11e;" horiz-adv-x="599" 
d="M389 664c-55 0 -99 41 -85 117h40c-10 -51 12 -79 49 -79c36 0 67 28 77 79h39c-14 -76 -59 -117 -120 -117zM295 -9c-144 0 -243 107 -243 269c0 190 123 363 309 363c118 0 200 -70 215 -176h-49c-18 78 -79 128 -166 128c-151 0 -257 -141 -257 -315
c0 -132 75 -221 191 -221c120 0 201 76 223 204h-159l8 45h208l-7 -43c-27 -151 -126 -254 -273 -254z" />
    <glyph glyph-name="Gcircumflex" unicode="&#x11c;" horiz-adv-x="599" 
d="M425 786l71 -119h-44l-53 84l-81 -84h-50l113 119h44zM295 -9c-144 0 -243 107 -243 269c0 190 123 363 309 363c118 0 200 -70 215 -176h-49c-18 78 -79 128 -166 128c-151 0 -257 -141 -257 -315c0 -132 75 -221 191 -221c120 0 201 76 223 204h-159l8 45h208l-7 -43
c-27 -151 -126 -254 -273 -254z" />
    <glyph glyph-name="Gcommaaccent" unicode="&#x122;" horiz-adv-x="599" 
d="M204 -183l48 67c-15 3 -26 15 -26 33c0 21 16 36 36 36s36 -15 36 -37c0 -16 -8 -29 -17 -41l-41 -58h-36zM295 -9c-144 0 -243 107 -243 269c0 190 123 363 309 363c118 0 200 -70 215 -176h-49c-18 78 -79 128 -166 128c-151 0 -257 -141 -257 -315
c0 -132 75 -221 191 -221c120 0 201 76 223 204h-159l8 45h208l-7 -43c-27 -151 -126 -254 -273 -254z" />
    <glyph glyph-name="Gdotaccent" unicode="&#x120;" horiz-adv-x="599" 
d="M431 714c0 -19 -15 -34 -34 -34s-34 15 -34 34s15 34 34 34s34 -15 34 -34zM295 -9c-144 0 -243 107 -243 269c0 190 123 363 309 363c118 0 200 -70 215 -176h-49c-18 78 -79 128 -166 128c-151 0 -257 -141 -257 -315c0 -132 75 -221 191 -221c120 0 201 76 223 204
h-159l8 45h208l-7 -43c-27 -151 -126 -254 -273 -254z" />
    <glyph glyph-name="Hbar" unicode="&#x126;" horiz-adv-x="675" 
d="M606 614h51l-24 -132h60l-8 -44h-59l-77 -438h-51l49 282h-389l-50 -282h-51l77 438h-59l8 44h58l24 132h51l-24 -132h390zM165 327h390l19 111h-390z" />
    <glyph glyph-name="Hcircumflex" unicode="&#x124;" horiz-adv-x="649" 
d="M593 614h51l-108 -614h-51l52 293h-390l-51 -293h-51l108 614h51l-49 -274h390zM448 786l71 -119h-44l-53 84l-81 -84h-50l113 119h44z" />
    <glyph glyph-name="Ibreve" unicode="&#x12c;" horiz-adv-x="209" 
d="M204 614l-108 -614h-51l108 614h51zM190 664c-55 0 -99 41 -85 117h40c-10 -51 12 -79 49 -79c36 0 67 28 77 79h39c-14 -76 -59 -117 -120 -117z" />
    <glyph glyph-name="Idotaccent" unicode="&#x130;" horiz-adv-x="209" 
d="M204 614l-108 -614h-51l108 614h51zM230 714c0 -19 -15 -34 -34 -34s-34 15 -34 34s15 34 34 34s34 -15 34 -34z" />
    <glyph glyph-name="Imacron" unicode="&#x12a;" horiz-adv-x="209" 
d="M204 614l-108 -614h-51l108 614h51zM87 670l7 42h202l-7 -42h-202z" />
    <glyph glyph-name="Iogonek" unicode="&#x12e;" horiz-adv-x="209" 
d="M204 614l-108 -614c-51 -72 -71 -97 -71 -126c0 -13 7 -19 19 -19c14 0 25 5 40 14l-7 -36c-14 -9 -28 -15 -45 -15c-29 0 -49 16 -49 48c0 41 30 76 72 134h-10l108 614h51z" />
    <glyph glyph-name="Itilde" unicode="&#x128;" horiz-adv-x="209" 
d="M204 614l-108 -614h-51l108 614h51zM294 770h36c-12 -64 -42 -105 -86 -105c-48 0 -62 65 -96 65c-24 0 -41 -24 -48 -62h-36c11 63 42 105 86 105c49 0 61 -65 96 -65c24 0 41 24 48 62z" />
    <glyph glyph-name="IJ" unicode="&#x132;" horiz-adv-x="686" 
d="M204 614l-108 -614h-51l108 614h51zM228 185h52s-1 -10 -1 -14c0 -78 48 -132 127 -132c84 0 142 52 160 159l74 416h51l-74 -420c-24 -134 -104 -203 -211 -203s-179 70 -179 175c0 7 1 19 1 19z" />
    <glyph glyph-name="Jcircumflex" unicode="&#x134;" horiz-adv-x="477" 
d="M19 185h52s-1 -10 -1 -14c0 -78 48 -132 127 -132c84 0 142 52 160 159l74 416h51l-74 -420c-24 -134 -104 -203 -211 -203s-179 70 -179 175c0 7 1 19 1 19zM502 786l71 -119h-44l-53 84l-81 -84h-50l113 119h44z" />
    <glyph glyph-name="Kcommaaccent" unicode="&#x136;" horiz-adv-x="542" 
d="M164 -183l48 67c-15 3 -26 15 -26 33c0 21 16 36 36 36s36 -15 36 -37c0 -16 -8 -29 -17 -41l-41 -58h-36zM204 614l-57 -320l375 320h68l-330 -281l232 -333h-59l-212 301l-86 -72l-39 -229h-51l108 614h51z" />
    <glyph glyph-name="Lacute" unicode="&#x139;" horiz-adv-x="503" 
d="M220 665h-53l103 117h59zM45 0l108 614h51l-100 -567h333l-8 -47h-384z" />
    <glyph glyph-name="Lcaron" unicode="&#x13d;" horiz-adv-x="503" 
d="M389 454h-42l78 160h43zM45 0l108 614h51l-100 -567h333l-8 -47h-384z" />
    <glyph glyph-name="Lcommaaccent" unicode="&#x13b;" horiz-adv-x="503" 
d="M172 -183l48 67c-15 3 -26 15 -26 33c0 21 16 36 36 36s36 -15 36 -37c0 -16 -8 -29 -17 -41l-41 -58h-36zM45 0l108 614h51l-100 -567h333l-8 -47h-384z" />
    <glyph glyph-name="Ldot" unicode="&#x13f;" horiz-adv-x="503" 
d="M45 0l108 614h51l-100 -567h333l-8 -47h-384zM418 308c0 -19 -15 -34 -34 -34s-34 15 -34 34c0 18 15 34 34 34s34 -16 34 -34z" />
    <glyph glyph-name="Nacute" unicode="&#x143;" horiz-adv-x="616" 
d="M413 665h-53l103 117h59zM611 614l-108 -614h-34l-281 540l-94 -540h-49l108 614h48l269 -519l92 519h49z" />
    <glyph glyph-name="Ncaron" unicode="&#x147;" horiz-adv-x="616" 
d="M369 660l-71 119h44l53 -83l81 83h50l-113 -119h-44zM611 614l-108 -614h-34l-281 540l-94 -540h-49l108 614h48l269 -519l92 519h49z" />
    <glyph glyph-name="Ncommaaccent" unicode="&#x145;" horiz-adv-x="616" 
d="M201 -183l48 67c-15 3 -26 15 -26 33c0 21 16 36 36 36s36 -15 36 -37c0 -16 -8 -29 -17 -41l-41 -58h-36zM611 614l-108 -614h-34l-281 540l-94 -540h-49l108 614h48l269 -519l92 519h49z" />
    <glyph glyph-name="Eng" unicode="&#x14a;" horiz-adv-x="616" 
d="M457 23l-269 517l-94 -540h-49l108 614h48l269 -519l92 519h49l-106 -600c-24 -141 -86 -197 -189 -197c-51 0 -92 21 -113 39l9 51c31 -28 67 -42 106 -42c84 0 119 47 139 158z" />
    <glyph glyph-name="Obreve" unicode="&#x14e;" horiz-adv-x="620" 
d="M391 664c-55 0 -99 41 -85 117h40c-10 -51 12 -79 49 -79c36 0 67 28 77 79h39c-14 -76 -59 -117 -120 -117zM290 39c158 0 257 151 257 314c0 127 -72 222 -187 222c-157 0 -256 -151 -256 -314c0 -127 71 -222 186 -222zM290 -9c-139 0 -238 108 -238 270
c0 182 120 362 308 362c139 0 239 -108 239 -270c0 -182 -120 -362 -309 -362z" />
    <glyph glyph-name="Ohungarumlaut" unicode="&#x150;" horiz-adv-x="620" 
d="M290 39c158 0 257 151 257 314c0 127 -72 222 -187 222c-157 0 -256 -151 -256 -314c0 -127 71 -222 186 -222zM290 -9c-139 0 -238 108 -238 270c0 182 120 362 308 362c139 0 239 -108 239 -270c0 -182 -120 -362 -309 -362zM350 665h-47l94 117h48zM464 665h-48
l95 117h48z" />
    <glyph glyph-name="Omacron" unicode="&#x14c;" horiz-adv-x="620" 
d="M288 670l7 42h202l-7 -42h-202zM290 39c158 0 257 151 257 314c0 127 -72 222 -187 222c-157 0 -256 -151 -256 -314c0 -127 71 -222 186 -222zM290 -9c-139 0 -238 108 -238 270c0 182 120 362 308 362c139 0 239 -108 239 -270c0 -182 -120 -362 -309 -362z" />
    <glyph glyph-name="Oslashacute" unicode="&#x1fe;" horiz-adv-x="630" 
d="M49 7l63 73c-35 46 -55 108 -55 181c0 182 120 362 308 362c64 0 121 -23 162 -65l52 60l31 -24l-57 -66c32 -46 51 -105 51 -175c0 -182 -120 -362 -309 -362c-62 0 -115 21 -156 59l-58 -67zM109 261c0 -56 13 -105 37 -142l349 402c-32 34 -76 54 -130 54
c-157 0 -256 -151 -256 -314zM295 39c158 0 257 151 257 314c0 52 -12 99 -33 136l-348 -402c31 -30 73 -48 124 -48zM414 665h-53l103 117h59z" />
    <glyph glyph-name="Racute" unicode="&#x154;" horiz-adv-x="545" 
d="M293 271h-150l-47 -271h-51l108 614h208c106 0 172 -51 172 -147c0 -114 -78 -182 -188 -194l137 -273h-54zM195 568l-44 -252h164c103 0 167 55 167 150c0 65 -46 102 -129 102h-158zM375 665h-53l103 117h59z" />
    <glyph glyph-name="Rcaron" unicode="&#x158;" horiz-adv-x="545" 
d="M293 271h-150l-47 -271h-51l108 614h208c106 0 172 -51 172 -147c0 -114 -78 -182 -188 -194l137 -273h-54zM195 568l-44 -252h164c103 0 167 55 167 150c0 65 -46 102 -129 102h-158zM330 660l-71 119h44l53 -83l81 83h50l-113 -119h-44z" />
    <glyph glyph-name="Rcommaaccent" unicode="&#x156;" horiz-adv-x="545" 
d="M293 271h-150l-47 -271h-51l108 614h208c106 0 172 -51 172 -147c0 -114 -78 -182 -188 -194l137 -273h-54zM195 568l-44 -252h164c103 0 167 55 167 150c0 65 -46 102 -129 102h-158zM162 -183l48 67c-15 3 -26 15 -26 33c0 21 16 36 36 36s36 -15 36 -37
c0 -16 -8 -29 -17 -41l-41 -58h-36z" />
    <glyph glyph-name="Sacute" unicode="&#x15a;" horiz-adv-x="499" 
d="M494 460h-50c-10 69 -64 117 -155 117c-85 0 -158 -46 -158 -132c0 -50 35 -74 95 -93l104 -33c80 -26 118 -67 118 -136c0 -120 -99 -192 -216 -192c-116 0 -205 60 -215 168h51c11 -83 80 -122 164 -122c94 0 167 51 167 143c0 41 -25 74 -89 94l-110 35
c-73 22 -118 60 -118 133c0 110 92 181 207 181c124 0 195 -69 205 -163zM340 665h-53l103 117h59z" />
    <glyph glyph-name="Scedilla" unicode="&#x15e;" horiz-adv-x="499" 
d="M494 460h-50c-10 69 -64 117 -155 117c-85 0 -158 -46 -158 -132c0 -50 35 -74 95 -93l104 -33c80 -26 118 -67 118 -136c0 -120 -99 -192 -216 -192c-116 0 -205 60 -215 168h51c11 -83 80 -122 164 -122c94 0 167 51 167 143c0 41 -25 74 -89 94l-110 35
c-73 22 -118 60 -118 133c0 110 92 181 207 181c124 0 195 -69 205 -163zM138 -175h-49l82 127h50z" />
    <glyph glyph-name="Scircumflex" unicode="&#x15c;" horiz-adv-x="499" 
d="M494 460h-50c-10 69 -64 117 -155 117c-85 0 -158 -46 -158 -132c0 -50 35 -74 95 -93l104 -33c80 -26 118 -67 118 -136c0 -120 -99 -192 -216 -192c-116 0 -205 60 -215 168h51c11 -83 80 -122 164 -122c94 0 167 51 167 143c0 41 -25 74 -89 94l-110 35
c-73 22 -118 60 -118 133c0 110 92 181 207 181c124 0 195 -69 205 -163zM358 786l71 -119h-44l-53 84l-81 -84h-50l113 119h44z" />
    <glyph glyph-name="Scommaaccent" unicode="&#x218;" horiz-adv-x="499" 
d="M133 -183l48 67c-15 3 -26 15 -26 33c0 21 16 36 36 36s36 -15 36 -37c0 -16 -8 -29 -17 -41l-41 -58h-36zM494 460h-50c-10 69 -64 117 -155 117c-85 0 -158 -46 -158 -132c0 -50 35 -74 95 -93l104 -33c80 -26 118 -67 118 -136c0 -120 -99 -192 -216 -192
c-116 0 -205 60 -215 168h51c11 -83 80 -122 164 -122c94 0 167 51 167 143c0 41 -25 74 -89 94l-110 35c-73 22 -118 60 -118 133c0 110 92 181 207 181c124 0 195 -69 205 -163z" />
    <glyph glyph-name="Tbar" unicode="&#x166;" horiz-adv-x="562" 
d="M92 567l8 47h501l-9 -47h-225l-40 -227h119l-8 -45h-119l-51 -295h-51l51 295h-115l7 45h116l40 227h-224z" />
    <glyph glyph-name="Tcaron" unicode="&#x164;" horiz-adv-x="562" 
d="M339 660l-71 119h44l53 -83l81 83h50l-113 -119h-44zM92 567l8 47h501l-9 -47h-225l-99 -567h-51l99 567h-224z" />
    <glyph glyph-name="Ubreve" unicode="&#x16c;" horiz-adv-x="605" 
d="M383 664c-55 0 -99 41 -85 117h40c-10 -51 12 -79 49 -79c36 0 67 28 77 79h39c-14 -76 -59 -117 -120 -117zM279 -9c-121 0 -211 68 -211 197c0 17 2 35 5 58l65 368h51l-64 -365c-3 -19 -5 -37 -5 -54c0 -106 67 -157 159 -157c111 0 189 67 214 211l64 365h51
l-65 -372c-30 -168 -129 -251 -264 -251z" />
    <glyph glyph-name="Uhungarumlaut" unicode="&#x170;" horiz-adv-x="605" 
d="M279 -9c-121 0 -211 68 -211 197c0 17 2 35 5 58l65 368h51l-64 -365c-3 -19 -5 -37 -5 -54c0 -106 67 -157 159 -157c111 0 189 67 214 211l64 365h51l-65 -372c-30 -168 -129 -251 -264 -251zM335 665h-47l94 117h48zM449 665h-48l95 117h48z" />
    <glyph glyph-name="Umacron" unicode="&#x16a;" horiz-adv-x="605" 
d="M280 670l7 42h202l-7 -42h-202zM279 -9c-121 0 -211 68 -211 197c0 17 2 35 5 58l65 368h51l-64 -365c-3 -19 -5 -37 -5 -54c0 -106 67 -157 159 -157c111 0 189 67 214 211l64 365h51l-65 -372c-30 -168 -129 -251 -264 -251z" />
    <glyph glyph-name="Uogonek" unicode="&#x172;" horiz-adv-x="605" 
d="M279 -9c-121 0 -211 68 -211 197c0 17 2 35 5 58l65 368h51l-64 -365c-3 -19 -5 -37 -5 -54c0 -106 67 -157 159 -157c111 0 189 67 214 211l64 365h51l-65 -372c-21 -115 -67 -168 -136 -225c-60 -49 -95 -104 -95 -143c0 -13 7 -19 19 -19c14 0 25 5 40 14l-7 -36
c-14 -9 -28 -15 -45 -15c-29 0 -49 16 -49 48c0 40 26 81 70 133c-19 -5 -39 -8 -61 -8z" />
    <glyph glyph-name="Uring" unicode="&#x16e;" horiz-adv-x="605" 
d="M279 -9c-121 0 -211 68 -211 197c0 17 2 35 5 58l65 368h51l-64 -365c-3 -19 -5 -37 -5 -54c0 -106 67 -157 159 -157c111 0 189 67 214 211l64 365h51l-65 -372c-30 -168 -129 -251 -264 -251zM384 679c27 0 52 21 52 51c0 27 -21 48 -48 48c-26 0 -51 -22 -51 -52
c0 -26 21 -47 47 -47zM383 648c-44 0 -78 33 -78 76c0 46 36 85 85 85c44 0 78 -33 78 -77c0 -45 -37 -84 -85 -84z" />
    <glyph glyph-name="Utilde" unicode="&#x168;" horiz-adv-x="605" 
d="M486 770h36c-12 -64 -42 -105 -86 -105c-48 0 -62 65 -96 65c-24 0 -41 -24 -48 -62h-36c11 63 42 105 86 105c49 0 61 -65 96 -65c24 0 41 24 48 62zM279 -9c-121 0 -211 68 -211 197c0 17 2 35 5 58l65 368h51l-64 -365c-3 -19 -5 -37 -5 -54c0 -106 67 -157 159 -157
c111 0 189 67 214 211l64 365h51l-65 -372c-30 -168 -129 -251 -264 -251z" />
    <glyph glyph-name="Wacute" unicode="&#x1e82;" horiz-adv-x="760" 
d="M486 665h-53l103 117h59zM433 614h42l41 -528l245 528h51l-287 -614h-46l-43 523l-245 -523h-46l-48 614h49l40 -528z" />
    <glyph glyph-name="Wcircumflex" unicode="&#x174;" horiz-adv-x="760" 
d="M433 614h42l41 -528l245 528h51l-287 -614h-46l-43 523l-245 -523h-46l-48 614h49l40 -528zM503 786l71 -119h-44l-53 84l-81 -84h-50l113 119h44z" />
    <glyph glyph-name="Wgrave" unicode="&#x1e80;" horiz-adv-x="760" 
d="M486 665h-47l-67 117h52zM433 614h42l41 -528l245 528h51l-287 -614h-46l-43 523l-245 -523h-46l-48 614h49l40 -528z" />
    <glyph glyph-name="Wdieresis" unicode="&#x1e84;" horiz-adv-x="760" 
d="M376 715c0 19 14 33 33 33c18 0 32 -14 32 -33c0 -18 -14 -33 -32 -33c-19 0 -33 15 -33 33zM501 715c0 19 14 33 32 33s33 -14 33 -33c0 -18 -15 -33 -33 -33s-32 15 -32 33zM433 614h42l41 -528l245 528h51l-287 -614h-46l-43 523l-245 -523h-46l-48 614h49l40 -528z
" />
    <glyph glyph-name="Ycircumflex" unicode="&#x176;" horiz-adv-x="535" 
d="M286 309l247 305h57l-285 -352l-46 -262h-51l46 262l-162 352h54zM391 786l71 -119h-44l-53 84l-81 -84h-50l113 119h44z" />
    <glyph glyph-name="Ygrave" unicode="&#x1ef2;" horiz-adv-x="535" 
d="M286 309l247 305h57l-285 -352l-46 -262h-51l46 262l-162 352h54zM374 665h-47l-67 117h52z" />
    <glyph glyph-name="Zacute" unicode="&#x179;" horiz-adv-x="519" 
d="M456 47l-8 -47h-443l6 39l466 528h-367l9 47h433l-7 -39l-465 -528h376zM363 665h-53l103 117h59z" />
    <glyph glyph-name="Zdotaccent" unicode="&#x17b;" horiz-adv-x="519" 
d="M382 714c0 -19 -15 -34 -34 -34s-34 15 -34 34s15 34 34 34s34 -15 34 -34zM456 47l-8 -47h-443l6 39l466 528h-367l9 47h433l-7 -39l-465 -528h376z" />
    <glyph glyph-name="abreve" unicode="&#x103;" horiz-adv-x="441" 
d="M388 300l-52 -300h-48l7 42c-26 -26 -75 -49 -126 -49c-84 0 -147 51 -147 125c0 91 86 148 179 148c60 0 106 -28 124 -51l15 82c1 9 2 21 2 28c0 49 -31 84 -91 84c-57 0 -97 -24 -124 -76h-49c30 75 97 120 176 120c88 0 137 -50 137 -125c0 -8 -1 -18 -3 -28z
M305 101l11 57c-10 36 -56 66 -115 66c-61 0 -131 -33 -131 -105c0 -52 49 -84 106 -84s109 28 129 66zM281 506c-55 0 -98 42 -84 120h40c-10 -52 10 -83 47 -83c38 0 67 31 77 83h40c-15 -78 -61 -120 -120 -120z" />
    <glyph glyph-name="amacron" unicode="&#x101;" horiz-adv-x="441" 
d="M388 300l-52 -300h-48l7 42c-26 -26 -75 -49 -126 -49c-84 0 -147 51 -147 125c0 91 86 148 179 148c60 0 106 -28 124 -51l15 82c1 9 2 21 2 28c0 49 -31 84 -91 84c-57 0 -97 -24 -124 -76h-49c30 75 97 120 176 120c88 0 137 -50 137 -125c0 -8 -1 -18 -3 -28z
M305 101l11 57c-10 36 -56 66 -115 66c-61 0 -131 -33 -131 -105c0 -52 49 -84 106 -84s109 28 129 66zM180 537l8 41h201l-7 -41h-202z" />
    <glyph glyph-name="aogonek" unicode="&#x105;" horiz-adv-x="441" 
d="M305 101l11 57c-10 36 -56 66 -115 66c-61 0 -131 -33 -131 -105c0 -52 49 -84 106 -84s109 28 129 66zM288 0l7 42c-26 -26 -75 -49 -126 -49c-84 0 -147 51 -147 125c0 91 86 148 179 148c60 0 106 -28 124 -51l15 82c1 9 2 21 2 28c0 49 -31 84 -91 84
c-57 0 -97 -24 -124 -76h-49c30 75 97 120 176 120c88 0 137 -50 137 -125c0 -8 -1 -18 -3 -28l-52 -300c-51 -72 -71 -97 -71 -126c0 -13 7 -19 19 -19c14 0 25 5 40 14l-7 -36c-14 -9 -28 -15 -45 -15c-29 0 -49 16 -49 48c0 41 31 76 73 134h-8z" />
    <glyph glyph-name="aringacute" unicode="&#x1fb;" horiz-adv-x="441" 
d="M295 509c27 0 51 16 51 43c0 23 -20 39 -47 39c-26 0 -51 -16 -51 -43c0 -23 21 -39 47 -39zM294 480c-44 0 -78 28 -78 66c0 40 36 74 84 74c45 0 79 -28 79 -66c0 -40 -37 -74 -85 -74zM344 648h-51l73 84h56zM388 300l-52 -300h-48l7 42c-26 -26 -75 -49 -126 -49
c-84 0 -147 51 -147 125c0 91 86 148 179 148c60 0 106 -28 124 -51l15 82c1 9 2 21 2 28c0 49 -31 84 -91 84c-57 0 -97 -24 -124 -76h-49c30 75 97 120 176 120c88 0 137 -50 137 -125c0 -8 -1 -18 -3 -28zM305 101l11 57c-10 36 -56 66 -115 66c-61 0 -131 -33 -131 -105
c0 -52 49 -84 106 -84s109 28 129 66z" />
    <glyph glyph-name="aeacute" unicode="&#x1fd;" horiz-adv-x="736" 
d="M439 520h-50l106 130h53zM631 129h50c-27 -82 -97 -138 -188 -138c-79 0 -134 43 -155 113c-36 -60 -103 -111 -187 -111c-77 0 -129 47 -129 119c0 94 84 146 191 146h121c7 36 9 50 9 66c0 49 -30 85 -91 85c-57 0 -97 -24 -123 -76h-49c29 75 96 120 175 120
c70 0 113 -37 128 -91c36 51 91 91 162 91c107 0 159 -71 159 -175c0 -16 -2 -35 -7 -61h-326c-1 -11 -2 -25 -2 -36c0 -95 48 -146 125 -146c64 0 116 35 137 94zM313 138l14 79h-115c-74 0 -143 -26 -143 -103c0 -49 38 -79 89 -79c73 0 127 47 155 103zM544 409
c-88 0 -144 -69 -165 -151h275c1 8 1 16 1 25c0 68 -31 126 -111 126z" />
    <glyph glyph-name="cacute" unicode="&#x107;" horiz-adv-x="442" 
d="M307 520h-50l106 130h53zM341 129h50c-27 -83 -92 -138 -183 -138c-107 0 -170 78 -170 192c0 139 83 270 225 270c94 0 147 -56 154 -138h-50c-6 57 -44 93 -104 93c-108 0 -175 -102 -175 -225c0 -90 47 -147 123 -147c64 0 109 36 130 93z" />
    <glyph glyph-name="ccaron" unicode="&#x10d;" horiz-adv-x="442" 
d="M264 515l-69 130h43l51 -96l86 96h48l-115 -130h-44zM341 129h50c-27 -83 -92 -138 -183 -138c-107 0 -170 78 -170 192c0 139 83 270 225 270c94 0 147 -56 154 -138h-50c-6 57 -44 93 -104 93c-108 0 -175 -102 -175 -225c0 -90 47 -147 123 -147c64 0 109 36 130 93z
" />
    <glyph glyph-name="ccircumflex" unicode="&#x109;" horiz-adv-x="442" 
d="M325 644l69 -131h-43l-51 97l-86 -97h-48l115 131h44zM341 129h50c-27 -83 -92 -138 -183 -138c-107 0 -170 78 -170 192c0 139 83 270 225 270c94 0 147 -56 154 -138h-50c-6 57 -44 93 -104 93c-108 0 -175 -102 -175 -225c0 -90 47 -147 123 -147c64 0 109 36 130 93z
" />
    <glyph glyph-name="cdotaccent" unicode="&#x10b;" horiz-adv-x="442" 
d="M341 129h50c-27 -83 -92 -138 -183 -138c-107 0 -170 78 -170 192c0 139 83 270 225 270c94 0 147 -56 154 -138h-50c-6 57 -44 93 -104 93c-108 0 -175 -102 -175 -225c0 -90 47 -147 123 -147c64 0 109 36 130 93zM330 579c0 -19 -15 -34 -34 -34s-34 15 -34 34
c0 18 15 34 34 34s34 -16 34 -34z" />
    <glyph glyph-name="dcaron" unicode="&#x10f;" horiz-adv-x="493" 
d="M558 490h-42l78 160h43zM399 376l48 274h49l-114 -650h-49l12 68c-32 -40 -86 -77 -146 -77c-111 0 -161 82 -161 186c0 138 90 276 231 276c66 0 112 -38 130 -77zM355 127l34 192c-20 57 -63 88 -119 88c-121 0 -182 -123 -182 -230c0 -83 39 -140 118 -140
c59 0 109 33 149 90z" />
    <glyph glyph-name="dcroat" unicode="&#x111;" horiz-adv-x="493" 
d="M308 520l7 37h115l17 93h49l-17 -93h54l-7 -37h-53l-91 -520h-49l12 68c-32 -40 -86 -77 -146 -77c-111 0 -161 82 -161 186c0 138 90 276 231 276c66 0 112 -38 130 -77l25 144h-116zM355 127l34 192c-20 57 -63 88 -119 88c-121 0 -182 -123 -182 -230
c0 -83 39 -140 118 -140c59 0 109 33 149 90z" />
    <glyph glyph-name="ebreve" unicode="&#x115;" horiz-adv-x="454" 
d="M349 129h50c-27 -82 -97 -138 -188 -138c-108 0 -173 75 -173 193c0 129 78 269 226 269c106 0 158 -71 158 -175c0 -16 -2 -34 -6 -60h-326c-1 -12 -2 -23 -2 -34c0 -95 48 -149 125 -149c63 0 115 35 136 94zM263 409c-90 0 -146 -69 -167 -152h276c1 9 2 17 2 25
c0 68 -32 127 -111 127zM285 506c-55 0 -98 42 -84 120h40c-10 -52 10 -83 47 -83c38 0 67 31 77 83h40c-15 -78 -61 -120 -120 -120z" />
    <glyph glyph-name="ecaron" unicode="&#x11b;" horiz-adv-x="454" 
d="M349 129h50c-27 -82 -97 -138 -188 -138c-108 0 -173 75 -173 193c0 129 78 269 226 269c106 0 158 -71 158 -175c0 -16 -2 -34 -6 -60h-326c-1 -12 -2 -23 -2 -34c0 -95 48 -149 125 -149c63 0 115 35 136 94zM263 409c-90 0 -146 -69 -167 -152h276c1 9 2 17 2 25
c0 68 -32 127 -111 127zM262 515l-69 130h43l51 -96l86 96h48l-115 -130h-44z" />
    <glyph glyph-name="edotaccent" unicode="&#x117;" horiz-adv-x="454" 
d="M349 129h50c-27 -82 -97 -138 -188 -138c-108 0 -173 75 -173 193c0 129 78 269 226 269c106 0 158 -71 158 -175c0 -16 -2 -34 -6 -60h-326c-1 -12 -2 -23 -2 -34c0 -95 48 -149 125 -149c63 0 115 35 136 94zM263 409c-90 0 -146 -69 -167 -152h276c1 9 2 17 2 25
c0 68 -32 127 -111 127zM333 579c0 -19 -15 -34 -34 -34s-34 15 -34 34c0 18 15 34 34 34s34 -16 34 -34z" />
    <glyph glyph-name="emacron" unicode="&#x113;" horiz-adv-x="454" 
d="M349 129h50c-27 -82 -97 -138 -188 -138c-108 0 -173 75 -173 193c0 129 78 269 226 269c106 0 158 -71 158 -175c0 -16 -2 -34 -6 -60h-326c-1 -12 -2 -23 -2 -34c0 -95 48 -149 125 -149c63 0 115 35 136 94zM263 409c-90 0 -146 -69 -167 -152h276c1 9 2 17 2 25
c0 68 -32 127 -111 127zM187 537l8 41h201l-7 -41h-202z" />
    <glyph glyph-name="eogonek" unicode="&#x119;" horiz-adv-x="454" 
d="M349 129h50c-11 -35 -33 -63 -70 -106c-60 -68 -86 -114 -86 -149c0 -13 7 -19 19 -19c14 0 25 5 40 14l-7 -36c-14 -9 -28 -15 -45 -15c-29 0 -49 16 -49 48c0 40 28 85 72 138c-19 -8 -39 -13 -62 -13c-108 0 -173 75 -173 193c0 129 78 269 226 269
c106 0 158 -71 158 -175c0 -16 -2 -34 -6 -60h-327c-1 -10 -1 -24 -1 -34c0 -95 48 -149 125 -149c63 0 115 35 136 94zM263 409c-89 0 -146 -68 -166 -152h275c1 9 2 17 2 25c0 68 -32 127 -111 127z" />
    <glyph glyph-name="gbreve" unicode="&#x11f;" horiz-adv-x="492" 
d="M338 28l9 50c-32 -40 -85 -75 -145 -75c-111 0 -163 79 -163 181c0 135 89 269 230 269c67 0 112 -39 130 -77l12 68h49l-73 -415c-24 -135 -100 -208 -210 -208c-100 0 -161 52 -164 135h49c4 -62 49 -92 115 -92c91 0 142 63 161 164zM357 138l32 182
c-19 55 -63 87 -119 87c-121 0 -182 -118 -182 -223c0 -81 42 -136 121 -136c59 0 108 35 148 90zM305 506c-55 0 -98 42 -84 120h40c-10 -52 10 -83 47 -83c38 0 67 31 77 83h40c-15 -78 -61 -120 -120 -120z" />
    <glyph glyph-name="gcircumflex" unicode="&#x11d;" horiz-adv-x="492" 
d="M345 644l69 -131h-43l-51 97l-86 -97h-48l115 131h44zM338 28l9 50c-32 -40 -85 -75 -145 -75c-111 0 -163 79 -163 181c0 135 89 269 230 269c67 0 112 -39 130 -77l12 68h49l-73 -415c-24 -135 -100 -208 -210 -208c-100 0 -161 52 -164 135h49c4 -62 49 -92 115 -92
c91 0 142 63 161 164zM357 138l32 182c-19 55 -63 87 -119 87c-121 0 -182 -118 -182 -223c0 -81 42 -136 121 -136c59 0 108 35 148 90z" />
    <glyph glyph-name="gcommaaccent" unicode="&#x123;" horiz-adv-x="492" 
d="M366 663l-49 -69c15 -3 26 -15 26 -33c0 -20 -16 -36 -36 -36s-36 15 -36 37c0 16 8 29 17 42l42 59h36zM338 28l9 50c-32 -40 -85 -75 -145 -75c-111 0 -163 79 -163 181c0 135 89 269 230 269c67 0 112 -39 130 -77l12 68h49l-73 -415c-24 -135 -100 -208 -210 -208
c-100 0 -161 52 -164 135h49c4 -62 49 -92 115 -92c91 0 142 63 161 164zM357 138l32 182c-19 55 -63 87 -119 87c-121 0 -182 -118 -182 -223c0 -81 42 -136 121 -136c59 0 108 35 148 90z" />
    <glyph glyph-name="gdotaccent" unicode="&#x121;" horiz-adv-x="492" 
d="M349 579c0 -19 -15 -34 -34 -34s-34 15 -34 34c0 18 15 34 34 34s34 -16 34 -34zM338 28l9 50c-32 -40 -85 -75 -145 -75c-111 0 -163 79 -163 181c0 135 89 269 230 269c67 0 112 -39 130 -77l12 68h49l-73 -415c-24 -135 -100 -208 -210 -208c-100 0 -161 52 -164 135
h49c4 -62 49 -92 115 -92c91 0 142 63 161 164zM357 138l32 182c-19 55 -63 87 -119 87c-121 0 -182 -118 -182 -223c0 -81 42 -136 121 -136c59 0 108 35 148 90z" />
    <glyph glyph-name="hbar" unicode="&#x127;" horiz-adv-x="483" 
d="M71 520l7 37h52l17 93h49l-17 -93h117l-7 -37h-116l-26 -148c34 43 91 81 156 81c84 0 130 -51 130 -125c0 -11 -1 -22 -3 -34l-51 -294h-49l49 287c2 11 3 21 3 31c0 53 -28 89 -91 89c-65 0 -124 -44 -154 -96l-55 -311h-49l91 520h-53z" />
    <glyph glyph-name="hcircumflex" unicode="&#x125;" horiz-adv-x="483" 
d="M303 453c84 0 130 -51 130 -125c0 -11 -1 -22 -3 -34l-51 -294h-49l49 287c2 11 3 21 3 31c0 53 -28 89 -91 89c-65 0 -124 -44 -154 -96l-55 -311h-49l114 650h49l-49 -278c34 43 91 81 156 81zM334 795l71 -119h-44l-53 84l-81 -84h-50l113 119h44z" />
    <glyph glyph-name="ibreve" unicode="&#x12d;" horiz-adv-x="192" 
d="M148 506c-53 0 -86 42 -71 120h38c-10 -52 4 -83 37 -83c32 0 57 31 66 83h39c-14 -78 -57 -120 -109 -120zM160 444l-78 -444h-49l78 444h49z" />
    <glyph glyph-name="imacron" unicode="&#x12b;" horiz-adv-x="192" 
d="M72 537l7 41h158l-7 -41h-158zM160 444l-78 -444h-49l78 444h49z" />
    <glyph glyph-name="iogonek" unicode="&#x12f;" horiz-adv-x="192" 
d="M193 579c0 -19 -15 -34 -34 -34s-34 15 -34 34c0 18 15 34 34 34s34 -16 34 -34zM33 0l78 444h49l-78 -444c-51 -72 -71 -97 -71 -126c0 -13 8 -19 19 -19c14 0 25 5 40 14l-6 -36c-15 -9 -28 -15 -46 -15c-29 0 -48 16 -48 48c0 41 31 76 72 134h-9z" />
    <glyph glyph-name="itilde" unicode="&#x129;" horiz-adv-x="192" 
d="M231 625h36c-11 -63 -38 -105 -73 -105c-40 0 -45 64 -70 64c-18 0 -29 -23 -36 -61h-36c11 63 38 105 72 105c41 0 46 -64 70 -64c18 0 30 24 37 61zM160 444l-78 -444h-49l78 444h49z" />
    <glyph glyph-name="ij" unicode="&#x133;" horiz-adv-x="384" 
d="M160 444l-78 -444h-49l78 444h49zM193 579c0 -19 -15 -34 -34 -34s-34 15 -34 34c0 18 15 34 34 34s34 -16 34 -34zM106 -173l8 45c6 -4 15 -7 26 -7c39 0 63 17 74 76l89 503h49l-89 -508c-14 -76 -56 -115 -123 -115c-17 0 -27 3 -34 6zM385 579c0 -19 -15 -34 -34 -34
s-34 15 -34 34c0 18 15 34 34 34s34 -16 34 -34z" />
    <glyph glyph-name="jcircumflex" unicode="&#x135;" horiz-adv-x="192" 
d="M191 644l49 -131h-42l-34 94l-67 -94h-46l96 131h44zM-86 -173l8 45c6 -4 15 -7 26 -7c39 0 63 17 74 76l89 503h49l-89 -508c-14 -76 -56 -115 -123 -115c-17 0 -27 3 -34 6z" />
    <glyph glyph-name="kcommaaccent" unicode="&#x137;" horiz-adv-x="442" 
d="M112 -183l48 67c-15 3 -26 15 -26 33c0 21 16 36 36 36s36 -15 36 -37c0 -16 -8 -29 -17 -41l-41 -58h-36zM334 0l-158 223l-63 -50l-31 -173h-49l114 650h49l-74 -419l271 213h68l-247 -193l176 -251h-56z" />
    <glyph glyph-name="kgreenlandic" unicode="&#x138;" horiz-adv-x="445" 
d="M334 0l-158 223l-63 -50l-31 -173h-49l78 444h49l-38 -213l271 213h68l-247 -193l176 -251h-56z" />
    <glyph glyph-name="lacute" unicode="&#x13a;" horiz-adv-x="192" 
d="M206 684h-53l103 117h59zM196 650l-114 -650h-49l114 650h49z" />
    <glyph glyph-name="lcaron" unicode="&#x13e;" horiz-adv-x="192" 
d="M258 490h-42l78 160h43zM196 650l-114 -650h-49l114 650h49z" />
    <glyph glyph-name="lcommaaccent" unicode="&#x13c;" horiz-adv-x="192" 
d="M-15 -183l48 67c-15 3 -26 15 -26 33c0 21 16 36 36 36s36 -15 36 -37c0 -16 -8 -29 -17 -41l-41 -58h-36zM196 650l-114 -650h-49l114 650h49z" />
    <glyph glyph-name="ldot" unicode="&#x140;" horiz-adv-x="294" 
d="M196 650l-114 -650h-49l114 650h49zM298 325c0 -19 -15 -34 -34 -34s-34 15 -34 34c0 18 15 34 34 34s34 -16 34 -34z" />
    <glyph glyph-name="nacute" unicode="&#x144;" horiz-adv-x="483" 
d="M318 520h-50l106 130h53zM33 0l78 444h49l-12 -72c34 43 90 81 155 81c84 0 130 -51 130 -125c0 -11 -1 -22 -3 -34l-51 -294h-49l49 287c2 11 3 21 3 31c0 53 -28 89 -91 89c-65 0 -124 -44 -154 -96l-55 -311h-49z" />
    <glyph glyph-name="ncaron" unicode="&#x148;" horiz-adv-x="483" 
d="M275 515l-69 130h43l51 -96l86 96h48l-115 -130h-44zM33 0l78 444h49l-12 -72c34 43 90 81 155 81c84 0 130 -51 130 -125c0 -11 -1 -22 -3 -34l-51 -294h-49l49 287c2 11 3 21 3 31c0 53 -28 89 -91 89c-65 0 -124 -44 -154 -96l-55 -311h-49z" />
    <glyph glyph-name="ncommaaccent" unicode="&#x146;" horiz-adv-x="483" 
d="M132 -183l48 67c-15 3 -26 15 -26 33c0 21 16 36 36 36s36 -15 36 -37c0 -16 -8 -29 -17 -41l-41 -58h-36zM33 0l78 444h49l-12 -72c34 43 90 81 155 81c84 0 130 -51 130 -125c0 -11 -1 -22 -3 -34l-51 -294h-49l49 287c2 11 3 21 3 31c0 53 -28 89 -91 89
c-65 0 -124 -44 -154 -96l-55 -311h-49z" />
    <glyph glyph-name="eng" unicode="&#x14b;" horiz-adv-x="483" 
d="M211 -173l7 45c7 -4 16 -7 26 -7c40 0 64 17 74 76l61 346c2 11 3 21 3 31c0 53 -28 89 -91 89c-65 0 -124 -44 -154 -96l-55 -311h-49l78 444h49l-12 -72c34 43 90 81 155 81c84 0 130 -51 130 -125c0 -11 -1 -22 -3 -34l-63 -358c-13 -76 -55 -115 -122 -115
c-17 0 -27 3 -34 6z" />
    <glyph glyph-name="obreve" unicode="&#x14f;" horiz-adv-x="471" 
d="M211 35c97 0 172 91 172 228c0 88 -47 146 -123 146c-97 0 -172 -91 -172 -228c0 -88 47 -146 123 -146zM211 -9c-108 0 -173 76 -173 190c0 159 98 272 222 272c108 0 173 -76 173 -190c0 -159 -98 -272 -222 -272zM287 506c-55 0 -98 42 -84 120h40
c-10 -52 10 -83 47 -83c38 0 67 31 77 83h40c-15 -78 -61 -120 -120 -120z" />
    <glyph glyph-name="ohungarumlaut" unicode="&#x151;" horiz-adv-x="471" 
d="M246 520h-46l96 130h47zM357 520h-46l97 130h46zM211 35c97 0 172 91 172 228c0 88 -47 146 -123 146c-97 0 -172 -91 -172 -228c0 -88 47 -146 123 -146zM211 -9c-108 0 -173 76 -173 190c0 159 98 272 222 272c108 0 173 -76 173 -190c0 -159 -98 -272 -222 -272z" />
    <glyph glyph-name="omacron" unicode="&#x14d;" horiz-adv-x="471" 
d="M189 537l8 41h201l-7 -41h-202zM211 35c97 0 172 91 172 228c0 88 -47 146 -123 146c-97 0 -172 -91 -172 -228c0 -88 47 -146 123 -146zM211 -9c-108 0 -173 76 -173 190c0 159 98 272 222 272c108 0 173 -76 173 -190c0 -159 -98 -272 -222 -272z" />
    <glyph glyph-name="oslashacute" unicode="&#x1ff;" horiz-adv-x="481" 
d="M30 -9l51 61c-25 33 -38 77 -38 129c0 159 98 272 222 272c47 0 86 -15 115 -41l49 58l28 -20l-54 -64c23 -32 35 -74 35 -123c0 -159 -98 -272 -222 -272c-45 0 -82 13 -111 36l-47 -57zM92 181c0 -36 7 -67 21 -91l238 286c-21 21 -49 33 -86 33
c-97 0 -173 -91 -173 -228zM216 35c97 0 173 91 173 228c0 33 -6 61 -18 84l-236 -284c20 -18 47 -28 81 -28zM315 520h-50l106 130h53z" />
    <glyph glyph-name="racute" unicode="&#x155;" horiz-adv-x="301" 
d="M249 520h-50l106 130h53zM319 447l-8 -49c-11 5 -24 8 -40 8c-54 0 -104 -39 -134 -96l-55 -310h-49l78 444h49l-12 -71c28 44 79 80 134 80c17 0 29 -3 37 -6z" />
    <glyph glyph-name="rcaron" unicode="&#x159;" horiz-adv-x="301" 
d="M206 515l-69 130h43l51 -96l86 96h48l-115 -130h-44zM319 447l-8 -49c-11 5 -24 8 -40 8c-54 0 -104 -39 -134 -96l-55 -310h-49l78 444h49l-12 -71c28 44 79 80 134 80c17 0 29 -3 37 -6z" />
    <glyph glyph-name="rcommaaccent" unicode="&#x157;" horiz-adv-x="301" 
d="M-14 -183l48 67c-15 3 -26 15 -26 33c0 21 16 36 36 36s36 -15 36 -37c0 -16 -8 -29 -17 -41l-41 -58h-36zM319 447l-8 -49c-11 5 -24 8 -40 8c-54 0 -104 -39 -134 -96l-55 -310h-49l78 444h49l-12 -71c28 44 79 80 134 80c17 0 29 -3 37 -6z" />
    <glyph glyph-name="sacute" unicode="&#x15b;" horiz-adv-x="398" 
d="M273 520h-50l106 130h53zM14 116h49c9 -54 54 -82 118 -82c57 0 114 25 114 90c0 32 -22 54 -69 71l-75 25c-54 18 -89 43 -89 101c0 83 75 132 157 132c96 0 148 -50 156 -122h-48c-10 49 -43 79 -108 79c-56 0 -109 -29 -109 -86c0 -35 25 -49 68 -64l71 -24
c65 -21 94 -56 94 -108c0 -87 -74 -137 -162 -137c-95 0 -161 48 -167 125z" />
    <glyph glyph-name="scedilla" unicode="&#x15f;" horiz-adv-x="398" 
d="M14 116h49c9 -54 54 -82 118 -82c57 0 114 25 114 90c0 32 -22 54 -69 71l-75 25c-54 18 -89 43 -89 101c0 83 75 132 157 132c96 0 148 -50 156 -122h-48c-10 49 -43 79 -108 79c-56 0 -109 -29 -109 -86c0 -35 25 -49 68 -64l71 -24c65 -21 94 -56 94 -108
c0 -87 -74 -137 -162 -137c-95 0 -161 48 -167 125zM97 -175h-49l82 127h50z" />
    <glyph glyph-name="scircumflex" unicode="&#x15d;" horiz-adv-x="398" 
d="M291 644l69 -131h-43l-51 97l-86 -97h-48l115 131h44zM14 116h49c9 -54 54 -82 118 -82c57 0 114 25 114 90c0 32 -22 54 -69 71l-75 25c-54 18 -89 43 -89 101c0 83 75 132 157 132c96 0 148 -50 156 -122h-48c-10 49 -43 79 -108 79c-56 0 -109 -29 -109 -86
c0 -35 25 -49 68 -64l71 -24c65 -21 94 -56 94 -108c0 -87 -74 -137 -162 -137c-95 0 -161 48 -167 125z" />
    <glyph glyph-name="scommaaccent" unicode="&#x219;" horiz-adv-x="398" 
d="M87 -183l48 67c-15 3 -26 15 -26 33c0 21 16 36 36 36s36 -15 36 -37c0 -16 -8 -29 -17 -41l-41 -58h-36zM14 116h49c9 -54 54 -82 118 -82c57 0 114 25 114 90c0 32 -22 54 -69 71l-75 25c-54 18 -89 43 -89 101c0 83 75 132 157 132c96 0 148 -50 156 -122h-48
c-10 49 -43 79 -108 79c-56 0 -109 -29 -109 -86c0 -35 25 -49 68 -64l71 -24c65 -21 94 -56 94 -108c0 -87 -74 -137 -162 -137c-95 0 -161 48 -167 125z" />
    <glyph glyph-name="tbar" unicode="&#x167;" horiz-adv-x="297" 
d="M29 241l8 41h65l22 119h-75l7 43h77l20 114h49l-20 -114h112l-7 -43h-114l-22 -119h94l-8 -41h-93l-23 -128c-1 -10 -3 -21 -3 -29c0 -34 19 -48 53 -48c22 0 45 7 64 17l-8 -47c-19 -9 -45 -15 -68 -15c-57 0 -92 28 -92 83c0 8 1 18 3 33l24 134h-65z" />
    <glyph glyph-name="tcaron" unicode="&#x165;" horiz-adv-x="297" 
d="M284 500h-42l78 160h43zM70 107l54 294h-75l7 43h77l20 114h49l-20 -114h112l-7 -43h-114l-52 -288c-1 -10 -3 -21 -3 -29c0 -34 19 -48 53 -48c22 0 45 7 64 17l-8 -47c-19 -9 -45 -15 -68 -15c-57 0 -92 28 -92 83c0 8 1 18 3 33z" />
    <glyph glyph-name="ubreve" unicode="&#x16d;" horiz-adv-x="481" 
d="M447 444l-78 -444h-49l12 71c-34 -42 -90 -80 -155 -80c-83 0 -128 50 -128 124c0 11 1 23 3 35l51 294h50l-51 -288c-2 -11 -3 -23 -3 -33c0 -52 27 -87 89 -87c66 0 125 45 155 97l55 311h49zM287 506c-55 0 -98 42 -84 120h40c-10 -52 10 -83 47 -83c38 0 67 31 77 83
h40c-15 -78 -61 -120 -120 -120z" />
    <glyph glyph-name="uhungarumlaut" unicode="&#x171;" horiz-adv-x="481" 
d="M447 444l-78 -444h-49l12 71c-34 -42 -90 -80 -155 -80c-83 0 -128 50 -128 124c0 11 1 23 3 35l51 294h50l-51 -288c-2 -11 -3 -23 -3 -33c0 -52 27 -87 89 -87c66 0 125 45 155 97l55 311h49zM248 520h-46l96 130h47zM359 520h-46l97 130h46z" />
    <glyph glyph-name="umacron" unicode="&#x16b;" horiz-adv-x="481" 
d="M447 444l-78 -444h-49l12 71c-34 -42 -90 -80 -155 -80c-83 0 -128 50 -128 124c0 11 1 23 3 35l51 294h50l-51 -288c-2 -11 -3 -23 -3 -33c0 -52 27 -87 89 -87c66 0 125 45 155 97l55 311h49zM190 537l8 41h201l-7 -41h-202z" />
    <glyph glyph-name="uogonek" unicode="&#x173;" horiz-adv-x="481" 
d="M320 0l12 71c-34 -42 -90 -80 -155 -80c-83 0 -128 50 -128 124c0 11 1 23 3 35l51 294h50l-51 -288c-2 -11 -3 -23 -3 -33c0 -52 27 -87 89 -87c66 0 125 45 155 97l55 311h49l-78 -444c-51 -72 -71 -97 -71 -126c0 -13 8 -19 19 -19c15 0 25 5 40 14l-6 -36
c-15 -9 -28 -15 -46 -15c-29 0 -48 16 -48 48c0 41 31 76 72 134h-9z" />
    <glyph glyph-name="uring" unicode="&#x16f;" horiz-adv-x="481" 
d="M297 531c27 0 51 21 51 51c0 27 -21 47 -47 47c-27 0 -51 -21 -51 -51c0 -27 21 -47 47 -47zM296 499c-45 0 -78 34 -78 77c0 45 36 85 84 85c45 0 78 -34 78 -77c0 -45 -36 -85 -84 -85zM447 444l-78 -444h-49l12 71c-34 -42 -90 -80 -155 -80c-83 0 -128 50 -128 124
c0 11 1 23 3 35l51 294h50l-51 -288c-2 -11 -3 -23 -3 -33c0 -52 27 -87 89 -87c66 0 125 45 155 97l55 311h49z" />
    <glyph glyph-name="utilde" unicode="&#x169;" horiz-adv-x="481" 
d="M447 444l-78 -444h-49l12 71c-34 -42 -90 -80 -155 -80c-83 0 -128 50 -128 124c0 11 1 23 3 35l51 294h50l-51 -288c-2 -11 -3 -23 -3 -33c0 -52 27 -87 89 -87c66 0 125 45 155 97l55 311h49zM394 625h36c-12 -63 -42 -105 -86 -105c-48 0 -62 65 -96 65
c-24 0 -41 -24 -48 -62h-36c11 63 42 105 86 105c49 0 61 -65 96 -65c24 0 41 25 48 62z" />
    <glyph glyph-name="wacute" unicode="&#x1e83;" horiz-adv-x="604" 
d="M375 520h-50l106 130h53zM360 444l30 -366l185 366h50l-227 -444h-42l-32 367l-183 -367h-43l-41 444h46l35 -366l182 366h40z" />
    <glyph glyph-name="wcircumflex" unicode="&#x175;" horiz-adv-x="604" 
d="M393 644l69 -131h-43l-51 97l-86 -97h-48l115 131h44zM360 444l30 -366l185 366h50l-227 -444h-42l-32 367l-183 -367h-43l-41 444h46l35 -366l182 366h40z" />
    <glyph glyph-name="wgrave" unicode="&#x1e81;" horiz-adv-x="604" 
d="M360 444l30 -366l185 366h50l-227 -444h-42l-32 367l-183 -367h-43l-41 444h46l35 -366l182 366h40zM376 520h-44l-64 130h48z" />
    <glyph glyph-name="wdieresis" unicode="&#x1e85;" horiz-adv-x="604" 
d="M268 571c0 18 14 32 33 32c18 0 32 -14 32 -32c0 -19 -14 -33 -32 -33c-19 0 -33 14 -33 33zM393 571c0 18 14 32 32 32s33 -14 33 -32c0 -19 -15 -33 -33 -33s-32 14 -32 33zM360 444l30 -366l185 366h50l-227 -444h-42l-32 367l-183 -367h-43l-41 444h46l35 -366
l182 366h40z" />
    <glyph glyph-name="ycircumflex" unicode="&#x177;" horiz-adv-x="432" 
d="M84 -170h-51l108 180l-84 434h50l70 -375l223 375h54zM301 644l69 -131h-43l-51 97l-86 -97h-48l115 131h44z" />
    <glyph glyph-name="ygrave" unicode="&#x1ef3;" horiz-adv-x="432" 
d="M84 -170h-51l108 180l-84 434h50l70 -375l223 375h54zM284 520h-44l-64 130h48z" />
    <glyph glyph-name="zacute" unicode="&#x17a;" horiz-adv-x="415" 
d="M296 520h-50l106 130h53zM347 43l-7 -43h-336l6 35l335 366h-266l8 43h329l-6 -35l-336 -366h273z" />
    <glyph glyph-name="zdotaccent" unicode="&#x17c;" horiz-adv-x="415" 
d="M347 43l-7 -43h-336l6 35l335 366h-266l8 43h329l-6 -35l-336 -366h273zM319 579c0 -19 -15 -34 -34 -34s-34 15 -34 34c0 18 15 34 34 34s34 -16 34 -34z" />
    <glyph glyph-name="caron.Slovak" 
d="M232 490h-42l78 160h43z" />
    <glyph glyph-name="cedilla.alt" 
d="M231 -175h-49l82 127h50z" />
    <glyph glyph-name="grave.cap" 
d="M308 665h-47l-67 117h52z" />
    <glyph glyph-name="acute.cap" 
d="M223 665h-53l103 117h59z" />
    <glyph glyph-name="circumflex.cap" 
d="M293 786l71 -119h-44l-53 84l-81 -84h-50l113 119h44z" />
    <glyph glyph-name="caron.cap" 
d="M207 660l-71 119h44l53 -83l81 83h50l-113 -119h-44z" />
    <glyph glyph-name="tilde.cap" 
d="M347 770h36c-12 -64 -42 -105 -86 -105c-48 0 -62 65 -96 65c-24 0 -41 -24 -48 -62h-36c11 63 42 105 86 105c49 0 61 -65 96 -65c24 0 41 24 48 62z" />
    <glyph glyph-name="macron.cap" 
d="M145 670l7 42h202l-7 -42h-202z" />
    <glyph glyph-name="breve.cap" 
d="M234 664c-55 0 -99 41 -85 117h40c-10 -51 12 -79 49 -79c36 0 67 28 77 79h39c-14 -76 -59 -117 -120 -117z" />
    <glyph glyph-name="dotaccent.cap" 
d="M284 714c0 -19 -15 -34 -34 -34s-34 15 -34 34s15 34 34 34s34 -15 34 -34z" />
    <glyph glyph-name="dieresis.cap" 
d="M155 715c0 19 14 33 33 33c18 0 32 -14 32 -33c0 -18 -14 -33 -32 -33c-19 0 -33 15 -33 33zM280 715c0 19 14 33 32 33s33 -14 33 -33c0 -18 -15 -33 -33 -33s-32 15 -32 33z" />
    <glyph glyph-name="ring.cap" 
d="M247 679c27 0 52 21 52 51c0 27 -21 48 -48 48c-26 0 -51 -22 -51 -52c0 -26 21 -47 47 -47zM246 648c-44 0 -78 33 -78 76c0 46 36 85 85 85c44 0 78 -33 78 -77c0 -45 -37 -84 -85 -84z" />
    <glyph glyph-name="hungarumlaut.cap" 
d="M170 665h-47l94 117h48zM284 665h-48l95 117h48z" />
    <glyph glyph-name="exclamdown.cap" horiz-adv-x="206" 
d="M163 422l-66 -422h-56l85 422h37zM210 579c0 -22 -17 -39 -38 -39c-20 0 -37 17 -37 39c0 21 17 38 37 38c21 0 38 -17 38 -38z" />
    <glyph glyph-name="questiondown.cap" horiz-adv-x="422" 
d="M172 38c88 0 146 53 170 139h51c-32 -114 -111 -186 -223 -186c-98 0 -155 54 -155 140c0 93 74 144 138 205c35 33 50 52 58 85h48c-11 -46 -32 -75 -73 -114c-49 -47 -120 -97 -120 -175c0 -56 38 -94 106 -94zM302 579c0 -22 -17 -39 -37 -39c-21 0 -38 17 -38 39
c0 21 17 38 38 38c20 0 37 -17 37 -38z" />
    <glyph glyph-name="guilsinglleft.cap" horiz-adv-x="192" 
d="M167 173h-48l-67 136l115 136h54l-119 -139z" />
    <glyph glyph-name="guilsinglright.cap" horiz-adv-x="192" 
d="M74 445h48l68 -136l-116 -136h-54l119 140z" />
    <glyph glyph-name="guillemotleft.cap" horiz-adv-x="314" 
d="M166 173h-47l-67 136l115 136h53l-119 -139zM289 173h-46l-68 136l116 136h52l-119 -139z" />
    <glyph glyph-name="guillemotright.cap" horiz-adv-x="314" 
d="M198 445h46l68 -136l-116 -136h-52l119 140zM74 445h47l67 -136l-115 -136h-53l119 140z" />
    <glyph glyph-name="slash.cap" horiz-adv-x="306" 
d="M-40 -64l376 734h53l-377 -734h-52z" />
    <glyph glyph-name="backslash.cap" horiz-adv-x="306" 
d="M140 670l119 -734h-47l-119 734h47z" />
    <glyph glyph-name="bar.cap" horiz-adv-x="205" 
d="M33 -64l129 734h47l-129 -734h-47z" />
    <glyph glyph-name="periodcentered.cap" horiz-adv-x="151" 
d="M52 301c0 22 17 39 37 39c21 0 38 -17 38 -39c0 -21 -17 -38 -38 -38c-20 0 -37 17 -37 38z" />
    <glyph glyph-name="bullet.cap" horiz-adv-x="332" 
d="M308 300c0 -75 -57 -128 -129 -128c-71 0 -128 53 -128 128s57 128 128 128c72 0 129 -53 129 -128z" />
    <glyph glyph-name="hyphen.cap" horiz-adv-x="321" 
d="M52 277l8 46h241l-8 -46h-241z" />
    <glyph glyph-name="endash.cap" horiz-adv-x="475" 
d="M52 279l7 41h395l-7 -41h-395z" />
    <glyph glyph-name="emdash.cap" horiz-adv-x="846" 
d="M52 279l7 41h766l-7 -41h-766z" />
    <glyph glyph-name="parenleft.cap" horiz-adv-x="325" 
d="M39 229c0 213 132 379 340 437l-8 -50c-170 -55 -282 -196 -282 -387c0 -130 63 -215 170 -247l-9 -50c-132 38 -211 146 -211 297z" />
    <glyph glyph-name="parenright.cap" horiz-adv-x="325" 
d="M315 370c0 -213 -131 -379 -340 -438l9 51c169 55 282 196 282 387c0 130 -64 215 -171 246l9 50c133 -38 211 -145 211 -296z" />
    <glyph glyph-name="bracketleft.cap" horiz-adv-x="311" 
d="M197 621l-113 -644h158l-8 -45h-205l129 734h205l-8 -45h-158z" />
    <glyph glyph-name="bracketright.cap" horiz-adv-x="311" 
d="M141 -23l113 644h-159l8 45h206l-129 -734h-206l8 45h159z" />
    <glyph glyph-name="braceleft.cap" horiz-adv-x="334" 
d="M154 229l-36 -207c-5 -30 7 -45 34 -45h113l-8 -45h-112c-54 0 -84 38 -74 93l36 207c5 29 -6 45 -34 45h-42l8 45h42c28 0 45 15 50 45l36 206c10 56 54 93 107 93h112l-8 -45h-113c-27 0 -44 -14 -50 -45l-36 -207c-6 -33 -26 -57 -52 -70c21 -15 33 -37 27 -70z" />
    <glyph glyph-name="braceright.cap" horiz-adv-x="334" 
d="M206 369l36 207c5 31 -7 45 -34 45h-113l8 45h112c54 0 84 -37 74 -93l-36 -206c-5 -29 6 -45 35 -45h42l-9 -45h-42c-28 0 -44 -15 -50 -45l-36 -207c-9 -55 -54 -93 -107 -93h-112l8 45h113c27 0 45 15 50 45l36 207c6 33 27 57 53 71c-21 15 -34 37 -28 69z" />
    <glyph glyph-name="at.cap" horiz-adv-x="774" 
d="M574 472l-61 -255c-8 -36 0 -60 45 -60c82 0 156 77 156 220c0 139 -108 236 -269 236c-206 0 -352 -161 -352 -362c0 -194 156 -274 313 -274c87 0 163 21 215 45l-5 -41c-51 -23 -127 -43 -211 -43c-184 0 -355 94 -355 313s163 403 395 403c189 0 311 -118 311 -277
c0 -173 -105 -259 -205 -259c-47 0 -81 23 -87 62c-25 -31 -69 -59 -113 -59c-79 0 -120 56 -120 132c0 112 79 227 193 227c49 0 81 -29 94 -57l12 49h44zM472 232l33 139c-12 38 -41 67 -81 67c-91 0 -148 -99 -148 -183c0 -58 33 -93 84 -93c46 0 82 31 112 70z" />
    <glyph glyph-name="Euro.lt" horiz-adv-x="520" 
d="M41 343l6 41h55c38 132 126 239 248 239c98 0 156 -68 164 -167h-45c-11 73 -50 121 -120 121c-98 0 -166 -84 -198 -193h217l-16 -41h-211c-5 -25 -9 -51 -10 -77h197l-17 -41h-181c2 -118 53 -188 140 -188c72 0 121 46 150 121h46c-35 -103 -106 -167 -199 -167
c-108 0 -184 88 -186 234h-61l7 41h55c1 26 5 51 10 77h-51z" />
    <glyph glyph-name="dollar.lt" horiz-adv-x="520" 
d="M34 164h49c12 -74 75 -107 151 -107c87 0 155 45 155 131c0 38 -23 69 -83 88l-102 32c-67 21 -112 57 -112 124c0 103 87 169 195 169h7l17 94h45l-18 -99c85 -16 132 -72 140 -145h-48c-9 63 -59 107 -143 107c-79 0 -147 -43 -147 -122c0 -46 32 -70 88 -87l97 -30
c75 -24 112 -63 112 -128c0 -111 -93 -177 -201 -178l-17 -98h-46l18 101c-85 12 -148 62 -157 148z" />
    <glyph glyph-name="cent.lt" horiz-adv-x="520" 
d="M75 193c0 137 81 267 220 270l16 90h45l-17 -94c70 -14 109 -67 114 -136h-49c-6 58 -43 95 -105 95c-108 0 -174 -102 -174 -225c0 -90 46 -147 122 -147c65 0 111 37 132 95h49c-25 -80 -85 -135 -170 -140l-15 -85h-45l15 87c-86 15 -138 88 -138 190z" />
    <glyph glyph-name="sterling.lt" horiz-adv-x="520" 
d="M227 423l-18 -100h169l-7 -42h-169l-26 -145c-6 -35 -21 -71 -39 -91h306l-7 -45h-421l7 45h65c19 23 33 47 41 91l26 145h-90l7 42h90l18 100c21 123 89 200 194 200c97 0 148 -55 150 -133h-48c-2 56 -40 88 -102 88c-78 0 -128 -55 -146 -155z" />
    <glyph glyph-name="yen.lt" horiz-adv-x="520" 
d="M47 144l7 41h157l13 77h-156l7 41h144l-133 311h51l122 -289l224 289h56l-245 -311h145l-6 -41h-159l-13 -77h158l-7 -41h-158l-25 -144h-49l24 144h-157z" />
    <glyph glyph-name="florin.lt" horiz-adv-x="520" 
d="M169 295l8 42h86l48 157c24 80 75 129 144 129c27 0 47 -5 63 -12l-7 -46c-17 9 -34 14 -56 14c-47 0 -76 -28 -95 -89l-47 -153h95l-7 -42h-101l-103 -340c-24 -80 -66 -128 -136 -128c-26 0 -46 5 -62 12l7 46c17 -9 33 -14 55 -14c48 0 69 28 87 89l102 335h-81z" />
    <glyph glyph-name="zero.lt" horiz-adv-x="520" 
d="M229 38c130 0 220 167 220 346c0 116 -49 192 -138 192c-130 0 -220 -167 -220 -346c0 -116 49 -192 138 -192zM230 -9c-118 0 -189 93 -189 239c0 210 113 393 269 393c118 0 189 -93 189 -239c0 -210 -113 -393 -269 -393z" />
    <glyph glyph-name="one.lt" horiz-adv-x="520" 
d="M34 0l8 47h188l89 506l-199 -94l10 53l219 103h31l-100 -568h163l-8 -47h-401z" />
    <glyph glyph-name="two.lt" horiz-adv-x="520" 
d="M42 35l265 241c66 61 138 122 138 201c0 62 -41 99 -110 99c-89 0 -144 -60 -168 -147h-53c31 114 111 194 225 194c99 0 157 -56 157 -142c0 -97 -74 -160 -159 -237l-218 -197h311l-8 -47h-385z" />
    <glyph glyph-name="three.lt" horiz-adv-x="520" 
d="M217 294l7 44h48c79 0 154 50 154 136c0 61 -44 103 -117 103c-76 0 -136 -48 -163 -122h-53c32 101 117 168 219 168c108 0 164 -59 164 -146c0 -83 -67 -150 -142 -163c61 -12 105 -56 105 -126c0 -105 -89 -196 -216 -196c-115 0 -188 65 -188 165v11h51v-5
c0 -80 52 -125 137 -125c94 0 166 63 166 150c0 66 -54 106 -125 106h-47z" />
    <glyph glyph-name="four.lt" horiz-adv-x="520" 
d="M408 614l-309 -418h228l27 152h48l-26 -152h115l-8 -46h-115l-27 -150h-48l27 150h-289l7 40l314 424h56z" />
    <glyph glyph-name="five.lt" horiz-adv-x="520" 
d="M229 -9c-112 0 -186 66 -186 166c0 3 1 10 1 10h50v-5c0 -79 54 -125 136 -125c102 0 175 82 175 178c0 74 -48 129 -125 129c-57 0 -99 -26 -130 -58h-46l59 328h333l-9 -47h-288l-39 -223c28 23 74 46 126 46c106 0 169 -74 169 -173c0 -119 -94 -226 -226 -226z" />
    <glyph glyph-name="six.lt" horiz-adv-x="520" 
d="M494 468h-50c-6 61 -39 109 -117 109c-119 0 -210 -139 -224 -294h1c33 72 101 117 174 117c109 0 184 -79 184 -183c0 -125 -95 -226 -218 -226c-128 0 -192 99 -192 231c0 214 117 401 276 401c102 0 159 -62 166 -155zM105 181c0 -73 47 -144 140 -144
c87 0 167 71 167 177c0 77 -51 141 -139 141c-87 0 -168 -73 -168 -174z" />
    <glyph glyph-name="seven.lt" horiz-adv-x="520" 
d="M494 573l-327 -573h-53l325 567h-355l9 47h409z" />
    <glyph glyph-name="eight.lt" horiz-adv-x="520" 
d="M90 156c0 -72 65 -121 143 -121c98 0 174 63 174 147c0 76 -65 123 -148 123c-94 0 -169 -65 -169 -149zM232 -9c-95 0 -193 53 -193 162c0 90 70 162 159 180c-47 21 -79 64 -79 120c0 93 83 170 194 170c92 0 172 -53 172 -145c0 -74 -57 -136 -131 -157
c63 -24 103 -75 103 -141c0 -111 -105 -189 -225 -189zM435 476c0 64 -55 103 -122 103c-83 0 -145 -58 -145 -128c0 -64 57 -103 121 -103c85 0 146 59 146 128z" />
    <glyph glyph-name="nine.lt" horiz-adv-x="520" 
d="M40 146h50c6 -61 39 -109 117 -109c119 0 210 139 224 294h-1c-33 -72 -101 -117 -174 -117c-109 0 -184 79 -184 183c0 125 95 226 218 226c128 0 192 -99 192 -231c0 -214 -117 -401 -276 -401c-102 0 -159 62 -166 155zM429 433c0 73 -47 144 -140 144
c-87 0 -167 -71 -167 -177c0 -77 51 -141 139 -141c87 0 168 73 168 174z" />
    <glyph glyph-name="period.tab" horiz-adv-x="260" 
d="M52 35c0 22 17 39 38 39c20 0 37 -17 37 -39c0 -21 -17 -38 -37 -38c-21 0 -38 17 -38 38z" />
    <glyph glyph-name="comma.tab" horiz-adv-x="260" 
d="M12 -101l73 102c-16 3 -27 16 -27 34c0 22 16 38 38 38c21 0 37 -16 37 -39c0 -17 -8 -31 -18 -43l-65 -92h-38z" />
    <glyph glyph-name="colon.tab" horiz-adv-x="260" 
d="M52 35c0 22 17 39 38 39c20 0 37 -17 37 -39c0 -21 -17 -38 -37 -38c-21 0 -38 17 -38 38zM110 364c0 22 17 39 38 39c20 0 37 -17 37 -39c0 -21 -17 -38 -37 -38c-21 0 -38 17 -38 38z" />
    <glyph glyph-name="semicolon.tab" horiz-adv-x="260" 
d="M12 -101l73 102c-16 3 -27 16 -27 34c0 22 16 38 38 38c21 0 37 -16 37 -39c0 -17 -8 -31 -18 -43l-65 -92h-38zM110 364c0 22 17 39 38 39c20 0 37 -17 37 -39c0 -21 -17 -38 -37 -38c-21 0 -38 17 -38 38z" />
    <glyph glyph-name="space.tab" horiz-adv-x="260" 
 />
    <glyph glyph-name="uni2153" unicode="&#x2153;" horiz-adv-x="662" 
d="M461 151l6 35h23c37 0 71 22 71 64c0 27 -19 46 -51 46c-35 0 -61 -23 -73 -57h-45c16 56 63 96 121 96c59 0 91 -33 91 -81c0 -43 -32 -78 -68 -87c29 -8 48 -32 48 -66c0 -58 -50 -106 -117 -106c-64 0 -104 37 -104 93v6h44v-2c0 -38 22 -58 61 -58c42 0 73 27 73 68
c0 31 -22 49 -56 49h-24zM607 614l-524 -614h-48l525 614h47zM244 615l-59 -330h-42l49 279l-94 -44l8 45l111 50h27z" />
    <glyph glyph-name="uni2154" unicode="&#x2154;" horiz-adv-x="715" 
d="M515 151l6 35h23c37 0 71 22 71 64c0 27 -19 46 -51 46c-35 0 -61 -23 -73 -57h-45c16 56 62 96 121 96s90 -33 90 -81c0 -43 -31 -78 -67 -87c28 -8 47 -32 47 -66c0 -58 -49 -106 -116 -106c-65 0 -104 37 -104 93v6h44v-2c0 -38 22 -58 61 -58c41 0 73 27 73 68
c0 31 -23 49 -57 49h-23zM63 314l138 126c32 28 67 60 67 94c0 29 -18 46 -49 46c-39 0 -65 -28 -75 -66h-45c16 61 61 106 124 106c56 0 89 -31 89 -79c0 -52 -39 -86 -84 -126l-101 -92h152l-7 -38h-213zM661 614l-525 -614h-47l524 614h48z" />
    <glyph glyph-name="uni215B" unicode="&#x215b;" horiz-adv-x="660" 
d="M607 614l-524 -614h-48l525 614h47zM244 615l-59 -330h-42l49 279l-94 -44l8 45l111 50h27zM399 87c0 -33 29 -56 66 -56c44 0 80 28 80 68c0 35 -30 57 -68 57c-43 0 -78 -29 -78 -69zM465 -5c-53 0 -109 28 -109 89c0 47 36 84 80 93c-24 12 -40 34 -40 64
c0 54 48 94 109 94c52 0 97 -30 97 -81c0 -40 -29 -73 -66 -84c30 -13 51 -38 51 -73c0 -63 -59 -102 -122 -102zM560 251c0 30 -25 49 -56 49c-38 0 -67 -26 -67 -61c0 -29 26 -47 56 -47c39 0 67 26 67 59z" />
    <glyph glyph-name="uni215C" unicode="&#x215c;" horiz-adv-x="703" 
d="M507 -5c-52 0 -108 28 -108 89c0 47 36 84 80 93c-24 12 -40 34 -40 64c0 54 48 94 109 94c52 0 97 -30 97 -81c0 -40 -30 -73 -66 -84c30 -13 51 -38 51 -73c0 -63 -59 -102 -123 -102zM168 436l6 35h22c37 0 72 22 72 64c0 27 -19 46 -52 46c-35 0 -61 -23 -73 -57h-44
c16 56 62 96 121 96c58 0 90 -34 90 -81c0 -43 -32 -78 -68 -87c29 -8 48 -32 48 -66c0 -58 -49 -106 -116 -106c-65 0 -105 36 -105 92v7h45v-2c0 -38 21 -59 60 -59c42 0 74 28 74 68c0 32 -23 50 -57 50h-23zM650 614l-525 -614h-47l524 614h48zM442 87
c0 -33 29 -56 66 -56c44 0 79 28 79 68c0 35 -29 57 -67 57c-43 0 -78 -29 -78 -69zM603 251c0 30 -25 49 -56 49c-38 0 -67 -26 -67 -61c0 -29 26 -47 56 -47c38 0 67 26 67 59z" />
    <glyph glyph-name="uni215D" unicode="&#x215d;" horiz-adv-x="703" 
d="M507 -5c-53 0 -108 28 -108 89c0 47 36 84 79 93c-24 12 -39 34 -39 64c0 54 48 94 109 94c52 0 97 -30 97 -81c0 -40 -30 -73 -66 -84c29 -13 51 -38 51 -73c0 -63 -59 -102 -123 -102zM174 280c-63 0 -103 38 -103 92v7h43v-3c0 -36 24 -58 62 -58c45 0 78 37 78 82
c0 35 -21 60 -57 60c-26 0 -46 -12 -60 -28h-37l32 183h183l-7 -39h-146l-18 -100c14 11 36 21 61 21c57 0 91 -39 91 -94c0 -66 -50 -123 -122 -123zM650 614l-525 -614h-48l525 614h48zM441 87c0 -33 30 -56 66 -56c45 0 80 28 80 68c0 35 -29 57 -67 57
c-43 0 -79 -29 -79 -69zM603 251c0 30 -26 49 -56 49c-38 0 -67 -26 -67 -61c0 -29 25 -47 55 -47c39 0 68 26 68 59z" />
    <glyph glyph-name="uni215E" unicode="&#x215e;" horiz-adv-x="641" 
d="M589 614l-525 -614h-48l525 614h48zM323 581l-168 -297h-45l166 291h-169l7 39h215zM380 87c0 -33 30 -56 66 -56c45 0 80 28 80 68c0 35 -29 57 -67 57c-43 0 -79 -29 -79 -69zM446 -5c-53 0 -109 28 -109 89c0 47 37 84 80 93c-24 12 -39 34 -39 64c0 54 48 94 109 94
c51 0 96 -30 96 -81c0 -40 -29 -73 -66 -84c30 -13 51 -38 51 -73c0 -63 -59 -102 -122 -102zM542 251c0 30 -26 49 -56 49c-39 0 -67 -26 -67 -61c0 -29 25 -47 55 -47c39 0 68 26 68 59z" />
    <glyph glyph-name="percent.lt" horiz-adv-x="520" 
d="M176 623c66 0 118 -52 118 -118c0 -64 -53 -127 -126 -127c-66 0 -118 52 -118 117s54 128 126 128zM170 418c44 0 84 38 84 87c0 42 -35 78 -80 78c-44 0 -84 -38 -84 -87c0 -43 36 -78 80 -78zM353 -9c-66 0 -118 52 -118 118c0 64 53 127 126 127
c66 0 118 -52 118 -117s-53 -128 -126 -128zM359 196c-44 0 -84 -38 -84 -87c0 -42 36 -78 80 -78s84 38 84 87c0 43 -35 78 -80 78zM518 614l-460 -614h-47l460 614h47z" />
    <glyph glyph-name="perthousand.lt" horiz-adv-x="800" 
d="M188 623c66 0 118 -52 118 -118c0 -64 -53 -127 -126 -127c-66 0 -118 52 -118 117s53 128 126 128zM182 418c44 0 84 38 84 87c0 42 -36 78 -80 78s-84 -38 -84 -87c0 -43 35 -78 80 -78zM365 -9c-66 0 -118 52 -118 118c0 64 53 127 126 127c66 0 118 -52 118 -117
s-54 -128 -126 -128zM371 196c-44 0 -84 -38 -84 -87c0 -42 35 -78 80 -78c44 0 84 38 84 87c0 43 -36 78 -80 78zM530 614l-460 -614h-47l460 614h47zM641 -9c-66 0 -118 52 -118 118c0 64 53 127 126 127c66 0 118 -52 118 -117s-54 -128 -126 -128zM647 196
c-44 0 -84 -38 -84 -87c0 -42 35 -78 80 -78c44 0 84 38 84 87c0 43 -36 78 -80 78z" />
    <glyph glyph-name="plus.lt" horiz-adv-x="520" 
d="M274 480h43l-29 -164h164l-7 -43h-165l-28 -164h-43l28 164h-164l8 43h164z" />
    <glyph glyph-name="minus.lt" horiz-adv-x="520" 
d="M73 273l8 43h371l-7 -43h-372z" />
    <glyph glyph-name="multiply.lt" horiz-adv-x="520" 
d="M235 293l-100 122l32 27l99 -122l142 123l25 -29l-142 -123l99 -121l-32 -28l-100 121l-142 -121l-24 29z" />
    <glyph glyph-name="divide.lt" horiz-adv-x="520" 
d="M73 273l8 43h371l-7 -43h-372zM253 447c0 21 16 38 36 38c19 0 36 -17 36 -38c0 -20 -17 -36 -36 -36c-20 0 -36 16 -36 36zM200 142c0 20 16 37 36 37s36 -17 36 -37c0 -21 -16 -37 -36 -37s-36 16 -36 37z" />
    <glyph glyph-name="equal.lt" horiz-adv-x="520" 
d="M62 210l7 42h372l-7 -42h-372zM84 338l7 42h373l-8 -42h-372z" />
    <glyph glyph-name="less.lt" horiz-adv-x="520" 
d="M108 269l8 47l301 150l-9 -51l-254 -125l210 -124l-8 -47z" />
    <glyph glyph-name="greater.lt" horiz-adv-x="520" 
d="M417 316l-8 -47l-301 -150l9 51l254 125l-210 125l8 46z" />
    <glyph glyph-name="plusminus.lt" horiz-adv-x="520" 
d="M287 495h43l-23 -126h163l-7 -42h-164l-22 -126h-42l22 126h-163l7 42h164zM54 104l8 43h369l-7 -43h-370z" />
    <glyph glyph-name="lessequal.lt" horiz-adv-x="520" 
d="M128 308l8 46l295 115l-9 -48l-240 -92l209 -93l-9 -43zM93 111l8 43h275l-8 -43h-275z" />
    <glyph glyph-name="greaterequal.lt" horiz-adv-x="520" 
d="M386 154l-7 -43h-275l7 43h275zM421 354l-8 -45l-295 -116l9 49l240 91l-209 93l9 43z" />
    <glyph glyph-name="notequal.lt" horiz-adv-x="520" 
d="M84 338l7 41h230l84 89h45l-85 -89h99l-8 -41h-130l-81 -86h196l-7 -41h-228l-85 -90h-45l85 90h-99l7 41h131l82 86h-198z" />
    <glyph glyph-name="approxequal.lt" horiz-adv-x="520" 
d="M79 304l8 47c41 33 76 44 107 44c64 0 100 -47 162 -47c30 0 68 14 111 48l-9 -47c-42 -34 -79 -44 -110 -44c-63 0 -99 47 -161 47c-31 0 -67 -15 -108 -48zM59 195l8 47c41 33 77 44 108 44c64 0 100 -48 162 -48c30 0 67 14 110 49l-7 -47c-43 -34 -81 -44 -112 -44
c-63 0 -99 47 -161 47c-31 0 -67 -15 -108 -48z" />
    </font>
</defs>
</svg>
